<?xml version="1.0" encoding="UTF-8" standalone="no"?>
<svg width="158px" height="20px" viewBox="0 0 158 20" version="1.1" xmlns="http://www.w3.org/2000/svg" xmlns:xlink="http://www.w3.org/1999/xlink">
    <!-- Generator: Sketch 42 (36781) - http://www.bohemiancoding.com/sketch -->
    <title>Page 1</title>
    <desc>Created with Sketch.</desc>
    <defs>
        <filter x="-50%" y="-50%" width="200%" height="200%" filterUnits="objectBoundingBox" id="filter-1">
            <feOffset dx="0" dy="2" in="SourceAlpha" result="shadowOffsetOuter1"></feOffset>
            <feGaussianBlur stdDeviation="2" in="shadowOffsetOuter1" result="shadowBlurOuter1"></feGaussianBlur>
            <feColorMatrix values="0 0 0 0 0   0 0 0 0 0   0 0 0 0 0  0 0 0 0.5 0" type="matrix" in="shadowBlurOuter1" result="shadowMatrixOuter1"></feColorMatrix>
            <feMerge>
                <feMergeNode in="shadowMatrixOuter1"></feMergeNode>
                <feMergeNode in="SourceGraphic"></feMergeNode>
            </feMerge>
        </filter>
    </defs>
    <g id="Symbols" stroke="none" stroke-width="1" fill="none" fill-rule="evenodd">
        <g id="head-bar" transform="translate(-81.000000, -12.000000)" fill="#FEFEFE">
            <g filter="url(#filter-1)" id="Page-1">
                <g transform="translate(85.000000, 14.000000)">
                    <polygon id="Fill-1" points="17.462 0.277780179 9.50783333 4.37710096 1.71394444 0.316403211 5.55555555e-05 0.277780179 5.55555555e-05 11.3070176 2.34561111 11.3070176 2.34561111 3.29121025 8.97394444 6.74338685 9.50783333 7.0051343 16.6703333 3.29121025 16.6703333 11.3070176 19.0156111 11.3070176 19.0156111 0.277780179"></polygon>
                    <polygon id="Fill-2" points="147.4075 0.277780179 147.4075 8.28858598 132.454722 0.318626119 130.739167 0.277780179 130.739167 11.3070176 133.084167 11.3070176 133.084167 3.29593393 148.0375 11.2664495 149.753056 11.3070176 149.753056 0.277780179"></polygon>
                    <path d="M28.513,0.277780179 L27.4846667,1.30809818 L27.4846667,10.2766996 L28.513,11.3070176 L45.4685556,11.3070176 L46.4985556,10.2766996 L46.4985556,1.30809818 L45.4685556,0.277780179 L28.513,0.277780179 Z M29.8299444,8.96101575 L44.1532778,8.96101575 L44.1532778,2.62378203 L29.8299444,2.62378203 L29.8299444,8.96101575 Z" id="Fill-3"></path>
                    <polygon id="Fill-4" points="82.4525 11.3069342 84.7980556 11.3069342 84.7980556 0.27769682 82.4525 0.27769682"></polygon>
                    <polygon id="Fill-5" points="119.924722 11.3069342 122.27 11.3069342 122.27 0.27769682 119.924722 0.27769682"></polygon>
                    <polygon id="Fill-6" points="93.26725 0.277780179 93.26725 11.3070176 95.6125278 11.3070176 95.6125278 6.96623341 103.121139 6.96623341 103.121139 4.61856437 95.6125278 4.61856437 95.6125278 2.62378203 111.455583 2.62378203 111.455583 0.277780179"></polygon>
                    <path d="M54.96775,0.277780179 L54.96775,11.3070176 L71.0419167,11.3070176 L73.8819167,8.44585675 L73.9816389,8.27024699 L73.9833056,3.39235258 L73.9863611,3.24369559 L71.3713611,0.630944736 L71.0419167,0.277780179 L54.96775,0.277780179 Z M57.3133056,2.62378203 L70.0510833,2.62378203 L71.6363611,4.21149429 L71.6363611,7.37330349 L70.0510833,8.96101575 L57.3133056,8.96101575 L57.3133056,2.62378203 Z" id="Fill-7"></path>
                </g>
            </g>
        </g>
    </g>
</svg>