<?xml version="1.0" standalone="no"?>
<!DOCTYPE svg PUBLIC "-//W3C//DTD SVG 1.1//EN" "http://www.w3.org/Graphics/SVG/1.1/DTD/svg11.dtd" >
<svg>
<metadata>
Created by FontForge 20090622 at Tue Jun 27 10:25:34 2017
 By deploy user
Copyright (c) Phanlop Thongsuk, 1995-2010. All rights reserved.
</metadata>
<defs>
<font id="KittithadaThin35" horiz-adv-x="0" >
  <font-face 
    font-family="Kittithada Thin 35"
    font-weight="400"
    font-stretch="normal"
    units-per-em="1000"
    panose-1="2 0 5 6 0 0 0 2 0 4"
    ascent="800"
    descent="-200"
    x-height="339"
    cap-height="471"
    bbox="-408 -293 732 781"
    underline-thickness="35"
    underline-position="-61"
    unicode-range="U+0020-U+F880"
  />
<missing-glyph horiz-adv-x="781" 
d="M49 0v781h683v-781h-683zM684 49v683h-586v-683h586z" />
    <glyph glyph-name="saraueesp1" unicode="&#xe37;&#xe48;" 
d="M-98 560v70h28v-70h-28zM-328 450v28h200v52h28v-52h32v52h28v-80h-288z" />
    <glyph glyph-name=".notdef" horiz-adv-x="781" 
d="M49 0v781h683v-781h-683zM684 49v683h-586v-683h586z" />
    <glyph glyph-name=".null" 
 />
    <glyph glyph-name="nonmarkingreturn" horiz-adv-x="333" 
 />
    <glyph glyph-name="space" unicode=" " horiz-adv-x="250" 
 />
    <glyph glyph-name="space" unicode="&#xa0;" horiz-adv-x="250" 
 />
    <glyph glyph-name="exclam" unicode="!" horiz-adv-x="171" 
d="M94 121h-16l-8 185v165h32v-165zM69 0v68h33v-68h-33z" />
    <glyph glyph-name="quotedbl" unicode="&#x22;" horiz-adv-x="208" 
d="M130 320v151h27v-151h-27zM51 320v151h27v-151h-27z" />
    <glyph glyph-name="numbersign" unicode="#" horiz-adv-x="371" 
d="M275 288l-16 -114h74v-22h-77l-21 -152h-22l21 152h-115l-21 -152h-22l21 152h-77v22h80l16 114h-78v22h81l21 145h22l-21 -145h116l20 145h22l-20 -145h72v-22h-76zM138 288l-16 -114h116l15 114h-115z" />
    <glyph glyph-name="dollar" unicode="$" horiz-adv-x="394" 
d="M367 121q0 -66 -52 -102q-43 -30 -103 -30h-1v-58h-21v59q-166 12 -163 166h27q-4 -66 37 -103q37 -34 99 -38v217q-77 17 -104 35q-47 30 -47 90q0 63 48 96q41 29 101 29h2v43h21v-44q139 -12 145 -142h-27q-5 105 -118 117v-203h3q0 -1 3 -1q75 -16 104 -37
q46 -31 46 -94zM190 457h-2q-48 0 -79 -21q-42 -26 -42 -79q0 -45 37 -69q26 -17 86 -30v199zM341 121q0 51 -39 75q-28 17 -91 31v-213h1q49 0 84 23q45 29 45 84z" />
    <glyph glyph-name="percent" unicode="%" horiz-adv-x="513" 
d="M487 109q0 -50 -31 -84t-78 -34q-48 0 -79 34t-31 84q0 51 30.5 85t79.5 34q50 0 79.5 -33.5t29.5 -85.5zM117 -16h-26l307 487h26zM246 345q0 -50 -31 -84t-79 -34t-79 34t-31 84q0 52 30.5 85.5t80.5 33.5t79.5 -33.5t29.5 -85.5zM462 109q0 43 -21 68q-26 29 -63 29
q-39 0 -62 -28t-23 -69q0 -39 24 -67.5t60 -28.5q37 0 61 28.5t24 67.5zM220 345q0 41 -21 69q-24 29 -63 29q-38 0 -61.5 -28t-23.5 -70q0 -39 24 -67.5t60 -28.5q37 0 61 28.5t24 67.5z" />
    <glyph glyph-name="ampersand" unicode="&#x26;" horiz-adv-x="391" 
d="M360 0l-57 70q-45 -78 -135 -78q-62 0 -99 30q-41 32 -41 90q0 49 41 90q21 21 82 58q-39 53 -43 58q-21 33 -21 64q0 35 28.5 58.5t69.5 23.5q43 0 71.5 -22.5t28.5 -59.5q0 -45 -31 -77q-8 -9 -67 -52l113 -138q15 36 15 79h26q-4 -64 -24 -100l76 -94h-33zM260 382
q0 26 -22 43t-52 17q-29 0 -51.5 -17.5t-22.5 -42.5q0 -39 61 -110q37 23 58 44q29 31 29 66zM164 242q-60 -39 -74 -52q-37 -34 -37 -78t36 -72q34 -26 79 -26q51 0 89 37q29 27 29 39z" />
    <glyph glyph-name="quotesingle" unicode="'" horiz-adv-x="135" 
d="M54 320v151h27v-151h-27z" />
    <glyph glyph-name="parenleft" unicode="(" horiz-adv-x="159" 
d="M128 -101q-85 131 -85 301q0 171 85 302h22q-82 -134 -82 -302q0 -167 82 -301h-22z" />
    <glyph glyph-name="parenright" unicode=")" horiz-adv-x="159" 
d="M116 200q0 -170 -85 -301h-22q82 135 82 301q0 168 -82 302h22q85 -131 85 -302z" />
    <glyph glyph-name="asterisk" unicode="*" horiz-adv-x="232" 
d="M131 367l54 -66l-19 -15l-50 70l-52 -70l-18 16l55 65l-83 25l8 22l80 -29l-4 86h27l-4 -86l81 29l7 -22z" />
    <glyph glyph-name="plus" unicode="+" horiz-adv-x="362" 
d="M193 154v-139h-25v139h-138v25h138v138h25v-138h139v-25h-139z" />
    <glyph glyph-name="comma" unicode="," horiz-adv-x="183" 
d="M108 0q0 -66 -42 -83v22q22 7 22 61h-17v63h37v-63z" />
    <glyph glyph-name="hyphen" unicode="-" horiz-adv-x="228" 
d="M46 167v25h137v-25h-137z" />
    <glyph glyph-name="period" unicode="." horiz-adv-x="183" 
d="M75 0v63h33v-63h-33z" />
    <glyph glyph-name="slash" unicode="/" horiz-adv-x="220" 
d="M17 -11h-27l212 493h27z" />
    <glyph glyph-name="zero" unicode="0" horiz-adv-x="362" 
d="M344 225q0 -99 -33 -157q-41 -76 -130 -76q-87 0 -130 76q-33 58 -33 157q0 96 33 156q42 75 130 75q89 0 130 -75q33 -61 33 -156zM319 225q0 84 -26 138q-34 72 -112 72q-77 0 -111 -72q-27 -54 -27 -138q0 -85 27 -140q35 -71 111 -71q77 0 112 71q26 57 26 140z" />
    <glyph glyph-name="one" unicode="1" horiz-adv-x="362" 
d="M191 0v344h-120v20q67 0 91 15q26 15 32 69h22v-448h-25z" />
    <glyph glyph-name="two" unicode="2" horiz-adv-x="362" 
d="M30 0q3 69 73 127l127 90q67 53 67 117q0 46 -29 73t-79 27q-59 0 -91 -37.5t-32 -99.5h-25q2 76 42 119q39 40 106 40q61 0 97 -31.5t36 -90.5q0 -52 -39 -99q-27 -31 -87 -72q-68 -46 -89 -67q-41 -38 -45 -71h267v-25h-299z" />
    <glyph glyph-name="three" unicode="3" horiz-adv-x="362" 
d="M332 124q0 -62 -42.5 -97t-111.5 -35q-75 0 -117 41.5t-38 114.5h24q-2 -63 33 -98t98 -35q58 0 90 28q39 29 39 81q0 59 -48 86q-39 21 -103 18v21q57 -3 95 17q45 24 45 77q0 45 -35 69q-31 22 -79 22q-58 0 -90 -34.5t-34 -92.5h-25q2 67 41.5 108t107.5 41
q59 0 97 -26q42 -32 42 -87q0 -40 -24.5 -69t-61.5 -34v-1q45 -6 71 -37.5t26 -77.5z" />
    <glyph glyph-name="four" unicode="4" horiz-adv-x="362" 
d="M262 112v-112h-25v112h-218v25l218 311h25v-314h76v-22h-76zM237 411h-1l-193 -277h194v277z" />
    <glyph glyph-name="five" unicode="5" horiz-adv-x="362" 
d="M330 148q0 -68 -43 -112q-44 -44 -110 -44t-110 39q-48 41 -43 106h24q-1 -54 36 -88t93 -34t92 38t36 95q0 58 -35 95t-91 37q-72 0 -117 -63h-25l45 231h227v-22h-208l-32 -172q41 47 111 47q68 0 109 -42t41 -111z" />
    <glyph glyph-name="six" unicode="6" horiz-adv-x="362" 
d="M338 143q0 -66 -43 -108q-42 -43 -108 -43q-159 0 -159 210q0 254 164 254q58 0 94.5 -30.5t43.5 -87.5h-25q-6 44 -36 70t-77 26q-140 0 -140 -230l1 -2q15 43 52 68.5t82 25.5q66 0 108 -44q43 -42 43 -109zM312 143q0 54 -36 93q-34 39 -89 39q-54 0 -90.5 -38.5
t-36.5 -93.5t37 -92t90 -37t89 37q36 39 36 92z" />
    <glyph glyph-name="seven" unicode="7" horiz-adv-x="362" 
d="M326 424q-80 -86 -125 -171q-57 -110 -68 -253h-27q7 112 44 202q48 120 151 224h-265v22h290v-24z" />
    <glyph glyph-name="eight" unicode="8" horiz-adv-x="362" 
d="M336 129q0 -68 -45 -104q-41 -33 -110 -33t-109 33q-46 37 -46 104q0 47 26.5 78t72.5 37v1q-83 17 -83 99q0 58 44 88q36 24 95 24t95 -24q43 -28 43 -88q0 -82 -83 -99v-1q46 -6 73 -37t27 -78zM295 344q0 90 -114 90t-114 -90q0 -46 36 -68q32 -21 78 -21t79 21
q35 23 35 68zM311 129q0 104 -130 104q-58 0 -92 -24q-39 -27 -39 -80q0 -56 40 -87q34 -27 91 -27t91 27q39 30 39 87z" />
    <glyph glyph-name="nine" unicode="9" horiz-adv-x="362" 
d="M336 246q0 -254 -164 -254q-58 0 -94.5 30.5t-43.5 87.5h25q5 -44 35.5 -70t77.5 -26q140 0 140 230l-1 2q-14 -42 -51.5 -68t-82.5 -26q-66 0 -109 43q-42 45 -42 110t43 108t108 43q159 0 159 -210zM304 305q0 55 -37 92t-90 37t-89 -38t-36 -91q0 -55 35 -93
q36 -39 90 -39t90.5 38.5t36.5 93.5z" />
    <glyph glyph-name="colon" unicode=":" horiz-adv-x="183" 
d="M75 276v63h33v-63h-33zM75 0v63h33v-63h-33z" />
    <glyph glyph-name="semicolon" unicode=";" horiz-adv-x="183" 
d="M75 276v63h33v-63h-33zM108 0q0 -66 -42 -83v22q22 7 22 61h-17v63h37v-63z" />
    <glyph glyph-name="less" unicode="&#x3c;" horiz-adv-x="362" 
d="M30 150v35l306 154v-27l-284 -144l284 -146v-27z" />
    <glyph glyph-name="equal" unicode="=" horiz-adv-x="362" 
d="M30 218v26h302v-26h-302zM30 90v25h302v-25h-302z" />
    <glyph glyph-name="greater" unicode="&#x3e;" horiz-adv-x="362" 
d="M30 -5v27l284 144l-284 146v27l306 -156v-34z" />
    <glyph glyph-name="question" unicode="?" horiz-adv-x="343" 
d="M304 358q0 -48 -32 -83q-19 -19 -59 -55q-32 -37 -32 -79v-27h-25v25q0 53 31 90l59 55q31 31 31 74q0 49 -31 74q-28 24 -73 24q-57 0 -90 -36t-30 -95h-25q-2 72 36.5 114.5t108.5 42.5q57 0 92 -30q39 -34 39 -94zM152 0v63h34v-63h-34z" />
    <glyph glyph-name="at" unicode="@" horiz-adv-x="528" 
d="M498 277q0 -75 -46 -131q-46 -57 -97 -57q-56 0 -47 52l-3 -4q-38 -50 -92 -50q-36 0 -60 28.5t-24 70.5q0 74 43 133q46 64 112 64q30 0 50 -17t24 -43h2l15 47h27l-63 -196q-7 -17 -7 -36q0 -26 22 -26q44 0 81 52q39 54 39 115q0 79 -63 132q-56 49 -136 49
q-90 0 -155 -67q-65 -68 -65 -160q0 -105 69 -166q64 -56 153 -56q54 0 102.5 27t78.5 73h29q-30 -56 -88 -89t-122 -33q-108 0 -176 65q-71 69 -71 179q0 103 72 176q70 73 172 73q95 0 159 -58q65 -59 65 -147zM341 283q0 78 -61 78q-52 0 -91 -60q-35 -55 -35 -112
q0 -36 19 -58t49 -22q39 0 76 52q43 61 43 122z" />
    <glyph glyph-name="A" unicode="A" horiz-adv-x="385" 
d="M362 0l-58 151h-222l-59 -151h-31l186 471h32l183 -471h-31zM195 443h-2l-102 -267h204z" />
    <glyph glyph-name="B" unicode="B" horiz-adv-x="410" 
d="M389 132q0 -62 -43.5 -97t-118.5 -35h-186v471h186q75 0 115 -38q31 -31 31 -84q0 -39 -23.5 -68t-61.5 -33v-2q21 4 55 -21q46 -31 46 -93zM345 354q0 92 -118 92h-157v-189h157q56 0 87 26t31 71zM361 132q0 100 -134 100h-157v-207h157q63 0 98.5 28t35.5 79z" />
    <glyph glyph-name="C" unicode="C" horiz-adv-x="458" 
d="M438 183q-6 -84 -61 -139t-133 -55q-99 0 -162 72q-58 67 -58 175q0 105 59 176q61 70 161 70q104 0 155 -73q25 -36 32 -78h-28q-10 57 -54 91.5t-105 34.5q-88 0 -140 -64q-52 -61 -52 -157q0 -94 51 -156q53 -66 141 -66q67 0 115 51t51 118h28z" />
    <glyph glyph-name="D" unicode="D" horiz-adv-x="433" 
d="M408 236q0 -107 -52 -168q-58 -68 -164 -68h-151v471h152q115 0 170 -72q45 -60 45 -163zM379 236q0 210 -193 210h-116v-421h118q81 0 131 44q60 54 60 167z" />
    <glyph glyph-name="E" unicode="E" horiz-adv-x="364" 
d="M41 0v471h312v-25h-283v-189h268v-25h-268v-207h287v-25h-316z" />
    <glyph glyph-name="F" unicode="F" horiz-adv-x="334" 
d="M70 446v-189h239v-25h-239v-232h-29v471h291v-25h-262z" />
    <glyph glyph-name="G" unicode="G" horiz-adv-x="482" 
d="M420 0v93h-2q-17 -46 -65.5 -75t-110.5 -29q-101 0 -161 71q-57 68 -57 173t57 174q61 75 162 75q75 0 129 -43t64 -114h-27q-11 59 -56.5 95.5t-109.5 36.5q-89 0 -142 -68q-49 -61 -49 -156t48 -154q53 -65 143 -65q84 0 132 52.5t45 139.5h-172v25h196v-231h-24z" />
    <glyph glyph-name="H" unicode="H" horiz-adv-x="437" 
d="M368 0v232h-298v-232h-29v471h29v-214h298v214h29v-471h-29z" />
    <glyph glyph-name="I" unicode="I" horiz-adv-x="110" 
d="M41 0v471h29v-471h-29z" />
    <glyph glyph-name="J" unicode="J" horiz-adv-x="312" 
d="M272 147q0 -70 -15 -100q-28 -58 -112 -58q-85 0 -113 54q-19 34 -19 107h28q0 -66 15 -95q23 -41 85 -41q70 0 91 48q11 25 11 90v319h29v-324z" />
    <glyph glyph-name="K" unicode="K" horiz-adv-x="396" 
d="M372 0l-208 256l-94 -92v-164h-29v471h29v-271l288 271h38l-212 -197l225 -274h-37z" />
    <glyph glyph-name="L" unicode="L" horiz-adv-x="327" 
d="M41 0v471h29v-446h265v-25h-294z" />
    <glyph glyph-name="M" unicode="M" horiz-adv-x="526" 
d="M456 0v436h-1l-177 -436h-29l-178 436h-1v-436h-29v471h41l181 -441h2l179 441h41v-471h-29z" />
    <glyph glyph-name="N" unicode="N" horiz-adv-x="440" 
d="M366 0l-295 434h-1v-434h-29v471h36l293 -430h1v430h29v-471h-34z" />
    <glyph glyph-name="O" unicode="O" horiz-adv-x="484" 
d="M464 236q0 -105 -59 -175q-63 -72 -163 -72q-102 0 -163 72q-59 68 -59 175q0 106 60 176q61 70 162 70q100 0 163 -71q59 -70 59 -175zM435 236q0 93 -51 156q-53 65 -142 65q-90 0 -142 -64q-52 -62 -52 -157q0 -94 51 -156q54 -66 143 -66q88 0 142 66q51 62 51 156z
" />
    <glyph glyph-name="P" unicode="P" horiz-adv-x="384" 
d="M373 337q0 -62 -37 -96.5t-105 -34.5h-161v-206h-29v471h193q139 0 139 -134zM345 338q0 108 -115 108h-160v-215h158q60 0 91 34q26 31 26 73z" />
    <glyph glyph-name="Q" unicode="Q" horiz-adv-x="484" 
d="M451 -24l-77 56q-52 -43 -132 -43q-102 0 -163 72q-59 68 -59 175q0 106 60 176q61 70 162 70q100 0 163 -71q59 -70 59 -175q0 -119 -70 -187l72 -53zM435 236q0 93 -51 156q-53 65 -142 65q-90 0 -142 -64q-52 -62 -52 -157q0 -94 51 -156q54 -66 143 -66q63 0 110 35
l-70 51l15 20l74 -55q64 60 64 171z" />
    <glyph glyph-name="R" unicode="R" horiz-adv-x="410" 
d="M357 0q-10 19 -11 50v54q-1 58 -26.5 84t-85.5 26h-164v-214h-29v471h193q147 0 147 -121q0 -106 -93 -122v-1q77 -11 84 -100l2 -74q1 -37 14 -53h-31zM353 348q0 98 -129 98h-154v-206h164q119 0 119 108z" />
    <glyph glyph-name="S" unicode="S" horiz-adv-x="410" 
d="M384 121q0 -68 -55 -102q-47 -30 -108 -30q-89 0 -139 38q-58 44 -56 129h28q-4 -73 47 -110q44 -32 120 -32q51 0 89 23q46 28 46 84q0 53 -50 79q-26 15 -108 32q-80 17 -109 35q-50 30 -50 90q0 61 50 96q44 29 106 29q171 0 177 -143h-28q-3 57 -42 87.5t-107 30.5
q-49 0 -83 -21q-44 -26 -44 -79q0 -63 82 -87l152 -38q82 -32 82 -111z" />
    <glyph glyph-name="T" unicode="T" horiz-adv-x="336" 
d="M181 446v-446h-28v446h-162v25h354v-25h-164z" />
    <glyph glyph-name="U" unicode="U" horiz-adv-x="437" 
d="M396 189q0 -200 -178 -200q-177 0 -177 200v282h29v-282q0 -175 148 -175q149 0 149 175v282h29v-282z" />
    <glyph glyph-name="V" unicode="V" horiz-adv-x="361" 
d="M197 0h-33l-173 471h28l161 -444h1l161 444h28z" />
    <glyph glyph-name="W" unicode="W" horiz-adv-x="578" 
d="M448 0h-32l-127 445h-1l-126 -445h-32l-138 471h30l124 -439h1l124 439h35l125 -439h1l124 439h30z" />
    <glyph glyph-name="X" unicode="X" horiz-adv-x="361" 
d="M340 0l-159 222l-160 -222h-32l175 242l-164 229h32l149 -207l148 207h32l-163 -229l174 -242h-32z" />
    <glyph glyph-name="Y" unicode="Y" horiz-adv-x="373" 
d="M200 195v-195h-29v195l-185 276h33l167 -253l169 253h32z" />
    <glyph glyph-name="Z" unicode="Z" horiz-adv-x="350" 
d="M-1 0v25l314 421h-297v25h329v-25l-314 -421h320v-25h-352z" />
    <glyph glyph-name="bracketleft" unicode="[" horiz-adv-x="157" 
d="M59 -101v603h91v-21h-66v-561h66v-21h-91z" />
    <glyph glyph-name="backslash" unicode="\" horiz-adv-x="217" 
d="M200 -11l-210 493h26l210 -493h-26z" />
    <glyph glyph-name="bracketright" unicode="]" horiz-adv-x="157" 
d="M7 -101v21h66v561h-66v21h91v-603h-91z" />
    <glyph glyph-name="asciicircum" unicode="^" horiz-adv-x="390" 
d="M336 156l-141 278l-141 -278h-28l152 299h35l151 -299h-28z" />
    <glyph glyph-name="underscore" unicode="_" horiz-adv-x="330" 
d="M0 -82v33h330v-33h-330z" />
    <glyph glyph-name="grave" unicode="`" horiz-adv-x="108" 
d="M68 390l-88 92h36l78 -92h-26z" />
    <glyph glyph-name="a" unicode="a" horiz-adv-x="325" 
d="M323 3q-7 -3 -20 -3q-45 0 -45 49v12h-1q-12 -30 -43 -48q-34 -21 -81 -21q-112 0 -112 96q0 89 123 100q79 6 97 18q17 12 17 53q0 66 -93 66q-101 0 -102 -90h-25q1 112 127 112q118 0 118 -91v-193q0 -41 22 -41q13 0 18 2v-21zM258 193q-13 -15 -49 -19l-72 -8
q-92 -11 -92 -78q0 -33 23.5 -53.5t64.5 -20.5q71 0 105 51q20 32 20 64v64z" />
    <glyph glyph-name="b" unicode="b" horiz-adv-x="361" 
d="M340 178q0 -106 -55 -154q-40 -32 -90 -32q-59 0 -94 34q-25 22 -33 47h-1v-73h-25v471h25v-201h1q29 77 127 77q71 0 110 -49q35 -46 35 -120zM315 178q0 62 -30 102q-33 45 -90 45q-63 0 -96 -42q-31 -37 -31 -105q0 -69 29 -113q35 -51 98 -51q61 0 93 53
q27 43 27 111z" />
    <glyph glyph-name="c" unicode="c" horiz-adv-x="338" 
d="M316 119q-6 -59 -44 -93t-95 -34q-78 0 -118 55q-37 49 -37 126q0 74 39 122q43 52 114 52q58 0 94 -27q39 -30 44 -86h-24q-4 43 -35 67t-79 24q-61 0 -96 -47q-33 -44 -33 -105q0 -73 34.5 -116t96.5 -43q46 0 78.5 29t36.5 76h24z" />
    <glyph glyph-name="d" unicode="d" horiz-adv-x="361" 
d="M295 0v70h-1q-39 -78 -128 -78q-74 0 -111 54q-34 46 -34 123q0 81 39 129.5t109 48.5q45 0 79 -21.5t46 -59.5h1v205h24v-471h-24zM294 169q0 65 -30 108q-35 48 -95 48q-63 0 -95 -47q-29 -43 -29 -109t31 -107q34 -48 94 -48t94 48q30 44 30 107z" />
    <glyph glyph-name="e" unicode="e" horiz-adv-x="340" 
d="M46 166q-3 -61 31 -106q34 -46 93 -46q48 0 80 26.5t40 74.5h25q-19 -123 -145 -123q-69 0 -110 51q-38 49 -38 121q0 75 36 126q39 57 112 57q74 0 115 -54q36 -49 33 -127h-272zM293 188q-3 60 -34 97q-34 40 -89 40q-54 0 -88 -43q-31 -40 -35 -94h246z" />
    <glyph glyph-name="f" unicode="f" horiz-adv-x="162" 
d="M173 451q-13 4 -40 4q-48 0 -48 -48v-68h69v-22h-69v-317h-25v317h-60v22h60v70q0 68 73 68q27 0 40 -4v-22z" />
    <glyph glyph-name="g" unicode="g" horiz-adv-x="349" 
d="M312 14q0 -143 -144 -143q-126 0 -131 105h25q6 -84 107 -84q119 0 119 120v74h-1q-37 -73 -122 -73q-71 0 -108 48q-35 46 -35 119q0 71 37 117q38 50 106 50q43 0 76.5 -20t45.5 -55h1v67h24v-325zM288 180q0 61 -31 101q-32 44 -92 44q-57 0 -89 -45q-30 -41 -30 -100
q0 -62 30 -103q33 -43 89 -43q57 0 92 45q31 40 31 101z" />
    <glyph glyph-name="h" unicode="h" horiz-adv-x="340" 
d="M278 0v214q0 111 -96 111q-56 0 -88.5 -38.5t-32.5 -103.5v-183h-25v471h25v-201h1q14 36 48 57q32 20 73 20q120 0 120 -137v-210h-25z" />
    <glyph glyph-name="i" unicode="i" horiz-adv-x="109" 
d="M42 400v68h25v-68h-25zM42 0v339h25v-339h-25z" />
    <glyph glyph-name="j" unicode="j" horiz-adv-x="109" 
d="M42 400v68h25v-68h-25zM67 -36q0 -85 -68 -85h-21v22q2 -1 16 -1q27 0 37.5 14t10.5 52v373h25v-375z" />
    <glyph glyph-name="k" unicode="k" horiz-adv-x="301" 
d="M283 0l-144 193l-77 -69v-124h-25v471h25v-314l207 182h35l-146 -130l156 -209h-31z" />
    <glyph glyph-name="l" unicode="l" horiz-adv-x="110" 
d="M42 0v471h26v-471h-26z" />
    <glyph glyph-name="m" unicode="m" horiz-adv-x="517" 
d="M456 0v232q0 93 -81 93q-46 0 -75 -33.5t-29 -90.5v-201h-25v232q0 93 -79 93q-38 0 -70 -29q-35 -37 -35 -95v-201h-25v339h25v-68q9 33 39 54.5t66 21.5q83 0 100 -72h1q27 72 106 72q107 0 107 -115v-232h-25z" />
    <glyph glyph-name="n" unicode="n" horiz-adv-x="338" 
d="M276 0v214q0 111 -95 111q-56 0 -88 -39t-32 -103v-183h-25v339h25v-70q24 78 118 78q122 0 122 -128v-219h-25z" />
    <glyph glyph-name="o" unicode="o" horiz-adv-x="351" 
d="M330 170q0 -76 -40 -125q-44 -53 -115 -53q-70 0 -114 53q-40 49 -40 125q0 74 41 126q42 51 113 51q72 0 115 -52q40 -49 40 -125zM305 170q0 64 -33 108q-37 47 -97 47q-61 0 -95 -46q-35 -46 -35 -109q0 -66 34 -109q36 -47 96 -47q59 0 97 47q33 43 33 109z" />
    <glyph glyph-name="p" unicode="p" horiz-adv-x="361" 
d="M340 169q0 -81 -37 -127q-39 -50 -113 -50q-93 0 -122 77h-1v-190h-25v460h25v-76h1q7 33 37 56q34 28 85 28q73 0 114 -53q36 -48 36 -125zM315 169q0 64 -29 107q-33 49 -96 49q-64 0 -95 -48q-27 -41 -27 -108q0 -155 122 -155q62 0 95 46q30 40 30 109z" />
    <glyph glyph-name="q" unicode="q" horiz-adv-x="361" 
d="M295 -121v195h-1q-30 -82 -125 -82q-74 0 -111 52q-37 46 -37 126q0 77 34 124q37 53 110 53q89 0 129 -78h1v70h24v-460h-24zM294 170q0 64 -30 107q-35 48 -94 48q-60 0 -94 -47q-31 -43 -31 -108q0 -66 29 -109q33 -47 95 -47q61 0 95 48q30 44 30 108z" />
    <glyph glyph-name="r" unicode="r" horiz-adv-x="181" 
d="M193 316q-61 5 -98 -37q-34 -37 -34 -94v-185h-25v339h25v-75h1q12 36 49.5 58.5t81.5 18.5v-25z" />
    <glyph glyph-name="s" unicode="s" horiz-adv-x="312" 
d="M290 86q0 -50 -43 -74q-35 -20 -88 -20q-59 0 -95 30q-39 31 -40 89h24q1 -45 32 -71t79 -26q41 0 69 15q37 19 37 57t-36 56q-18 8 -79 22q-56 12 -79 26q-36 22 -36 69q0 45 39 69q35 22 81 19q125 -2 125 -106h-25q-3 83 -99 84q-36 3 -65 -14q-31 -18 -31 -51
q0 -36 35 -54q19 -10 76 -21q61 -12 84 -28q35 -23 35 -71z" />
    <glyph glyph-name="t" unicode="t" horiz-adv-x="172" 
d="M163 0q-18 -2 -24 -2q-77 0 -77 83v236h-62v22h62v106h25v-106h75v-22h-75v-236q0 -37 20 -52q16 -10 56 -7v-22z" />
    <glyph glyph-name="u" unicode="u" horiz-adv-x="338" 
d="M276 0v64h-1q-33 -72 -119 -72q-120 0 -120 137v210h25v-214q0 -111 95 -111q54 0 87 39.5t33 102.5v183h25v-339h-25z" />
    <glyph glyph-name="v" unicode="v" horiz-adv-x="289" 
d="M164 0h-31l-134 339h28l120 -311h2l113 311h28z" />
    <glyph glyph-name="w" unicode="w" horiz-adv-x="458" 
d="M353 0h-32l-92 310h-1l-92 -310h-32l-105 339h27l93 -310h2l91 310h33l92 -310h1l93 310h28z" />
    <glyph glyph-name="x" unicode="x" horiz-adv-x="289" 
d="M262 0l-117 159l-118 -159h-31l132 178l-123 161h32l108 -143l105 143h32l-121 -161l132 -178h-31z" />
    <glyph glyph-name="y" unicode="y" horiz-adv-x="289" 
d="M149 -36q-18 -47 -31 -64q-19 -22 -63 -22q-19 0 -23 1v21q47 -3 64 11q14 11 31 58l11 30l-142 340h28l126 -309l115 309h28z" />
    <glyph glyph-name="z" unicode="z" horiz-adv-x="277" 
d="M6 0v24l227 293h-210v22h238v-24l-227 -293h238v-22h-266z" />
    <glyph glyph-name="braceleft" unicode="{" horiz-adv-x="217" 
d="M158 -101q-58 0 -58 77v105q0 106 -46 107v25q46 1 46 107v105q0 77 58 77h34v-21h-32q-35 0 -35 -68v-104q0 -81 -45 -107q24 -21 26 -25q19 -28 19 -85v-105q0 -33 3 -44q8 -23 32 -23h32v-21h-34z" />
    <glyph glyph-name="bar" unicode="|" horiz-adv-x="145" 
d="M60 -11v493h25v-493h-25z" />
    <glyph glyph-name="braceright" unicode="}" horiz-adv-x="217" 
d="M163 188q-46 -1 -46 -107v-105q0 -77 -58 -77h-34v21h32q23 0 32 23q3 11 3 44v105q0 57 19 85q1 2 26 25q-45 26 -45 107v104q0 68 -35 68h-32v21h34q58 0 58 -77v-105q0 -106 46 -107v-25z" />
    <glyph glyph-name="asciitilde" unicode="~" horiz-adv-x="390" 
d="M343 187q-34 -56 -78 -56q-28 0 -68 22q-41 23 -66 23q-43 0 -65 -49l-20 16q27 58 81 58q33 0 74 -23q40 -22 64 -22q35 0 60 50z" />
    <glyph glyph-name="currency" unicode="&#xa4;" horiz-adv-x="410" 
d="M206 356q-46 0 -78 -33q-32 -37 -32 -78q0 -46 31 -80q31 -33 79 -33q45 0 77 33q31 31 31 80q0 46 -31 78.5t-77 32.5zM4 80l72 71q-30 40 -30 94q0 56 30 92l-72 73l37 35l71 -71q40 29 94 29q58 0 92 -29l73 71l35 -35l-71 -73q29 -40 29 -92q0 -54 -29 -94l71 -71
l-35 -37l-73 72q-15 -12 -41 -21q-25 -9 -51 -9q-54 0 -94 30l-71 -72z" />
    <glyph glyph-name="FL00A9h" unicode="&#xa9;" horiz-adv-x="528" 
d="M511 236q0 -103 -72 -175t-175 -72q-101 0 -175 72q-72 72 -72 175q0 102 72 174t175 72t175 -72q72 -73 72 -174zM486 236q0 96 -64 160q-65 65 -157 65q-95 0 -160 -65q-63 -64 -63 -160q0 -95 64 -160q65 -65 159 -65q92 0 157 65q64 67 64 160zM395 185
q-6 -48 -40.5 -77t-83.5 -29q-67 0 -108 44q-41 46 -41 113q0 69 40.5 112t106.5 43q51 0 85.5 -27t40.5 -75h-25q-7 36 -34.5 58.5t-65.5 22.5q-56 0 -89.5 -36.5t-33.5 -96.5q0 -58 34 -97t90 -39q78 0 99 84h25z" />
    <glyph glyph-name="guillemotleft" unicode="&#xab;" horiz-adv-x="253" 
d="M127 166v27l76 86v-35l-57 -65l57 -65v-34zM43 166v27l76 86v-35l-57 -65l57 -65v-34z" />
    <glyph glyph-name="logicalnot" unicode="&#xac;" horiz-adv-x="362" 
d="M301 58v87h-280v44h320v-131h-40z" />
    <glyph glyph-name="minus" unicode="&#xad;" horiz-adv-x="362" 
d="M30 154v25h302v-25h-302z" />
    <glyph glyph-name="registered" unicode="&#xae;" horiz-adv-x="528" 
d="M511 236q0 -103 -72 -175t-175 -72q-101 0 -175 72q-72 72 -72 175q0 102 72 174t175 72t175 -72q72 -73 72 -174zM486 236q0 96 -64 160q-65 65 -157 65q-95 0 -160 -65q-63 -64 -63 -160q0 -95 64 -160q65 -65 159 -65q92 0 157 65q64 67 64 160zM363 90l-88 134h-76
v-134h-25v291h110q95 0 95 -80q0 -67 -75 -77l87 -134h-28zM354 302q0 58 -74 58h-81v-114h62q93 0 93 56z" />
    <glyph glyph-name="degree" unicode="&#xb0;" horiz-adv-x="264" 
d="M130 447q42 0 71 -29t29 -70t-29 -70t-71 -29q-40 0 -69 28.5t-29 70.5q0 40 28.5 69.5t69.5 29.5zM130 419q-31 0 -51 -20t-20 -51q0 -29 21 -50.5t50 -21.5q30 0 51 21q22 22 22 51t-21.5 50t-51.5 21z" />
    <glyph glyph-name="paragraph" unicode="&#xb6;" horiz-adv-x="355" 
d="M307 -119h-30v662h-71v-662h-27v393q-81 0 -128 30q-51 36 -51 115q0 75 46 112q44 32 121 32h190v-20h-50v-662z" />
    <glyph glyph-name="middot" unicode="&#xb7;" horiz-adv-x="165" 
d="M83 254q15 0 25 -10.5t10 -24.5q0 -15 -10.5 -25.5t-24.5 -10.5q-16 0 -26 10t-10 26q0 15 10 25t26 10z" />
    <glyph glyph-name="middot" unicode="&#x2219;" horiz-adv-x="165" 
d="M83 254q15 0 25 -10.5t10 -24.5q0 -15 -10.5 -25.5t-24.5 -10.5q-16 0 -26 10t-10 26q0 15 10 25t26 10z" />
    <glyph glyph-name="guillemotright" unicode="&#xbb;" horiz-adv-x="253" 
d="M133 80v34l57 65l-57 65v35l77 -86v-27zM50 80v34l57 65l-57 65v35l76 -86v-27z" />
    <glyph glyph-name="multiply" unicode="&#xd7;" horiz-adv-x="362" 
d="M307 22l-127 127l-126 -126l-18 18l126 126l-126 126l18 17l126 -126l127 127l17 -18l-126 -126l126 -127z" />
    <glyph glyph-name="divide" unicode="&#xf7;" horiz-adv-x="362" 
d="M215 299q0 -34 -34 -34t-34 34t34 34t34 -34zM30 154v25h302v-25h-302zM215 34q0 -34 -34 -34t-34 34t34 34t34 -34z" />
    <glyph glyph-name="uni0E00" unicode="&#xe00;" horiz-adv-x="100" 
 />
    <glyph glyph-name="uni0E01" unicode="&#xe01;" horiz-adv-x="388" 
d="M320 0v268q0 52 -35 81.5t-91 29.5q-84 0 -126 -60v-319h-28v326q57 81 154 81q65 0 107 -33q47 -34 47 -97v-277h-28z" />
    <glyph glyph-name="uni0E02" unicode="&#xe02;" horiz-adv-x="353" 
d="M313 132q0 -60 -39 -99.5t-99 -39.5q-63 0 -107 47q-43 46 -43 117q0 90 89 168l-45 66l23 15l58 -83q-97 -78 -97 -166q0 -59 34 -97.5t88 -38.5q48 0 79 31.5t31 79.5v269h28v-269z" />
    <glyph glyph-name="uni0E03" unicode="&#xe03;" horiz-adv-x="358" 
d="M318 132q0 -60 -39 -99.5t-99 -39.5q-64 0 -108 45q-42 45 -42 115q0 97 97 158v59l-44 -40q-21 32 -67 55l15 20q30 -14 55 -41l40 36h29v-103q-97 -48 -97 -144q0 -59 33.5 -95.5t88.5 -36.5q48 0 79 31.5t31 79.5v268h28v-268z" />
    <glyph glyph-name="uni0E04" unicode="&#xe04;" horiz-adv-x="388" 
d="M320 0v275q0 46 -36.5 75t-89.5 29t-89.5 -29t-36.5 -75v-58h126v-28h-126v-189h-28v275q0 57 47 96q46 36 107 36q62 0 107 -36q47 -38 47 -96v-275h-28z" />
    <glyph glyph-name="uni0E05" unicode="&#xe05;" horiz-adv-x="408" 
d="M340 0v282q0 37 -20.5 66t-51.5 33l-64 -79l-65 79q-31 -4 -51 -32.5t-20 -66.5v-65h136v-28h-136v-189h-28v282q0 52 30.5 88t77.5 37l56 -65l56 65q47 -1 77.5 -37t30.5 -88v-282h-28z" />
    <glyph glyph-name="uni0E06" unicode="&#xe06;" horiz-adv-x="393" 
d="M353 125q0 -57 -41.5 -94.5t-102.5 -37.5q-39 0 -78 18.5t-58 45.5v-57h-28v247q0 28 31 50q32 24 32 41v34l-48 -37q-19 28 -53 52l16 18q25 -18 40 -36l44 32h29v-71q0 -18 -32 -42q-31 -22 -31 -47v-107q0 -46 42 -80q43 -33 94 -33q52 0 84 28.5t32 75.5v276h28v-276
z" />
    <glyph glyph-name="uni0E07" unicode="&#xe07;" horiz-adv-x="368" 
d="M343 201q0 -95 -55.5 -149.5t-149.5 -54.5q-11 0 -37 2l-96 395l28 7l91 -376q87 -5 139 42.5t52 133.5q0 82 -42.5 127.5t-120.5 45.5q-20 0 -25 -1v28q9 1 27 1q92 0 142 -54q47 -53 47 -147z" />
    <glyph glyph-name="uni0E08" unicode="&#xe08;" horiz-adv-x="375" 
d="M350 208q0 -96 -63 -157q-62 -62 -160 -54l-49 216h-40v28h63l48 -216q75 -1 124 51t49 132q0 75 -43 123t-112 48q-79 0 -141 -59l-22 18q64 69 165 69q82 0 131 -56q50 -56 50 -143z" />
    <glyph glyph-name="uni0E09" unicode="&#xe09;" horiz-adv-x="378" 
d="M310 0v57q-47 -64 -136 -64q-59 0 -96.5 36.5t-37.5 95.5v72h-30v28h58v-100q0 -47 31 -75.5t80 -28.5t90 33q41 35 41 80v141q0 46 -37 75t-89 29q-44 0 -81 -21q-42 -23 -52 -57h-28q10 48 59 77q47 29 102 29q62 0 107 -36q47 -39 47 -96v-256l10 -19h-38z" />
    <glyph glyph-name="uni0E0A" unicode="&#xe0a;" horiz-adv-x="357" 
d="M332 157q0 -71 -45 -115q-50 -47 -131 -48q-65 -1 -116 20v387h28v-365q39 -17 89 -15q69 1 108 37.5t39 98.5q0 59 -36.5 99.5t-99.5 54.5l98 94l19 -16l-70 -69q117 -48 117 -163z" />
    <glyph glyph-name="uni0E0B" unicode="&#xe0b;" horiz-adv-x="367" 
d="M342 157q0 -71 -45 -115q-48 -46 -131 -48q-65 -1 -116 20v230q0 26 26 52q27 26 27 42v34l-48 -37q-19 28 -53 52l16 18q25 -18 40 -36l44 32h29v-68q0 -18 -27 -45q-26 -28 -26 -51v-201q39 -16 89 -15q69 1 108 37.5t39 98.5q0 59 -36 99.5t-100 54.5l98 94l19 -16
l-70 -69q117 -48 117 -163z" />
    <glyph glyph-name="uni0E0C" unicode="&#xe0c;" horiz-adv-x="648" 
d="M608 125q0 -59 -37 -95.5t-97 -36.5q-82 0 -126 64v-57h-28v268q0 52 -35 81.5t-91 29.5q-84 0 -126 -60v-291h70v-28h-98v326q57 81 154 81q65 0 107 -33q47 -34 47 -97v-143q0 -47 39 -80t87 -33t77 28t29 76v275h28v-275z" />
    <glyph glyph-name="uni0E0D" unicode="&#xe0d;" horiz-adv-x="648" 
d="M608 125q0 -57 -44 -95q-43 -37 -107 -37q-88 0 -136 56l20 19q47 -47 115 -47q52 0 88 29t36 75v13q-45 -54 -118 -54q-64 0 -103 33t-39 89v62q0 52 -35 81.5t-91 29.5q-84 0 -126 -60v-291h70v-28h-98v326q57 81 154 81q65 0 107 -33q47 -34 47 -97v-71q0 -48 34 -70
q31 -23 80 -23q50 0 84 29.5t34 75.5v182h28v-275z" />
    <glyph glyph-name="uni0E0E" unicode="&#xe0e;" horiz-adv-x="393" 
d="M325 -150l-91 70l-91 -70h-138v28h134l95 71l91 -68v388q0 51 -35.5 80.5t-90.5 29.5q-84 0 -126 -60v-319h-73v28h45v298q55 81 154 81q63 0 107 -33q47 -35 47 -96v-428h-28z" />
    <glyph glyph-name="uni0E0F" unicode="&#xe0f;" horiz-adv-x="393" 
d="M325 -151l-61 60l-55 -64l-55 64l-61 -60h-98v28h92l67 66l55 -64l55 64l61 -58v383q0 52 -35 81.5t-91 29.5q-84 0 -126 -60v-319h-73v28h45v298q55 81 154 81q63 0 107 -33q47 -35 47 -97v-428h-28z" />
    <glyph glyph-name="uni0E10" unicode="&#xe10;" horiz-adv-x="375" 
d="M350 208q0 -96 -63 -157q-62 -62 -160 -54l-50 222h-39v23h63l48 -217q75 -1 124 51t49 132q0 76 -43 124t-112 48q-79 0 -141 -60l-22 18q64 70 165 70q54 0 93 -24l39 46l22 -16l-37 -46q64 -57 64 -160zM323 -151l-61 60l-55 -64l-55 64l-61 -60h-88v28h82l67 66
l55 -64l55 64l61 -58v63l-14 23h42v-122h-28z" />
    <glyph glyph-name="uni0E11" unicode="&#xe11;" horiz-adv-x="393" 
d="M325 0v293q0 31 -18.5 55.5t-41.5 24.5l-191 -373h-29v247q0 28 31 50q32 23 32 40v35l-48 -37q-19 28 -53 52l16 18q25 -18 40 -36l44 32h29v-71q0 -18 -32 -42q-31 -22 -31 -47v-182l178 342q47 0 74.5 -30t27.5 -79v-292h-28z" />
    <glyph glyph-name="uni0E12" unicode="&#xe12;" horiz-adv-x="670" 
d="M630 125q0 -59 -37 -95.5t-97 -36.5q-82 0 -126 64v-57h-28v280q0 38 -18.5 66.5t-47.5 32.5l-62 -77l-66 77q-31 -12 -61 -61q-34 -58 -34 -125q0 -71 26 -118q31 -52 84 -52q33 0 56 30l22 -16q-31 -42 -78 -42q-67 0 -103 55q-35 53 -35 143q0 81 40 143q41 64 91 71
l58 -65l54 63q45 -1 73.5 -37t28.5 -88v-146q0 -47 39 -80t87 -33t77 28t29 76v275h28v-275z" />
    <glyph glyph-name="uni0E13" unicode="&#xe13;" horiz-adv-x="648" 
d="M580 0v57q-44 -64 -126 -64q-59 0 -96.5 36.5t-37.5 95.5v143q0 52 -35 81.5t-91 29.5q-84 0 -126 -60v-291h70v-28h-98v326q57 81 154 81q65 0 107 -33q47 -34 47 -97v-152q0 -48 29 -76t77 -28t87 33t39 80v266h28v-400h-28z" />
    <glyph glyph-name="uni0E14" unicode="&#xe14;" horiz-adv-x="395" 
d="M327 0v266q0 49 -34 81t-86 32q-67 0 -110 -57q-41 -52 -44 -133q-1 -70 26 -116q29 -50 84 -50q33 0 56 30l22 -16q-31 -42 -78 -42q-68 0 -105 55q-35 51 -33 139q2 89 52 153q53 65 130 65q67 0 106 -40q42 -39 42 -99v-268h-28z" />
    <glyph glyph-name="uni0E15" unicode="&#xe15;" horiz-adv-x="410" 
d="M342 0v280q0 38 -18.5 66.5t-47.5 32.5l-62 -77l-66 77q-32 -12 -60 -61q-32 -54 -35 -125q-1 -71 25 -119q30 -51 85 -51q33 0 56 30l22 -16q-31 -42 -78 -42q-67 0 -104 55q-37 56 -34 143q1 81 40 143q41 64 91 71l58 -65l54 63q45 -1 73.5 -37t28.5 -88v-280h-28z
" />
    <glyph glyph-name="uni0E16" unicode="&#xe16;" horiz-adv-x="388" 
d="M320 0v268q0 52 -35 81.5t-91 29.5q-84 0 -126 -60v-291h70v-28h-98v326q57 81 154 81q65 0 107 -33q47 -34 47 -97v-277h-28z" />
    <glyph glyph-name="uni0E17" unicode="&#xe17;" horiz-adv-x="388" 
d="M320 0v265q0 52 -31.5 83t-82.5 31q-49 0 -93 -32q-45 -35 -45 -81v-266h-28v400h28v-56q19 27 58.5 45t79.5 18q62 0 102 -37t40 -97v-273h-28z" />
    <glyph glyph-name="uni0E18" unicode="&#xe18;" horiz-adv-x="356" 
d="M332 121q0 -61 -52 -96q-46 -31 -120 -31q-71 0 -125 20v190l28 10v-176q45 -17 97 -17q58 0 98 24q45 27 45 76q0 84 -125 106q-77 13 -102 23q-48 20 -48 61q0 42 46 70q44 25 98 25q56 0 99 -26q46 -28 60 -79h-31q-12 36 -49 56.5t-83 20.5q-44 0 -76.5 -19.5
t-32.5 -43.5q0 -31 42 -44q20 -7 83 -17q148 -24 148 -133z" />
    <glyph glyph-name="uni0E19" unicode="&#xe19;" horiz-adv-x="388" 
d="M320 0v57q-19 -27 -58 -45.5t-78 -18.5q-61 0 -102.5 37.5t-41.5 94.5v275h28v-275q0 -47 32 -75.5t84 -28.5t94 33t42 80v266h28v-400h-28z" />
    <glyph glyph-name="uni0E1A" unicode="&#xe1a;" horiz-adv-x="388" 
d="M348 125q0 -58 -46 -95t-108 -37t-108 37t-46 95v275h28v-275q0 -46 36.5 -75t89.5 -29t89.5 29t36.5 75v275h28v-275z" />
    <glyph glyph-name="uni0E1B" unicode="&#xe1b;" horiz-adv-x="388" 
d="M348 125q0 -58 -46 -95t-108 -37t-108 37t-46 95v275h28v-275q0 -46 36.5 -75t89.5 -29t89.5 29t36.5 75v375h28v-375z" />
    <glyph glyph-name="uni0E1C" unicode="&#xe1c;" horiz-adv-x="488" 
d="M379 0h-24l-112 351l-110 -351h-23l-105 400h96v-28h-60l82 -323l108 351h25l110 -351l89 351h27z" />
    <glyph glyph-name="uni0E1D" unicode="&#xe1d;" horiz-adv-x="488" 
d="M379 0h-24l-112 350l-110 -350h-23l-105 400h96v-29h-60l82 -322l108 351h25l110 -351l115 451h27z" />
    <glyph glyph-name="uni0E1E" unicode="&#xe1e;" horiz-adv-x="488" 
d="M379 0h-24l-112 351l-110 -351h-23l-105 400h27l91 -351l108 351h25l110 -351l89 351h27z" />
    <glyph glyph-name="uni0E1F" unicode="&#xe1f;" horiz-adv-x="488" 
d="M379 0h-24l-112 350l-110 -350h-23l-105 400h27l91 -351l108 351h25l110 -351l115 451h27z" />
    <glyph glyph-name="uni0E20" unicode="&#xe20;" horiz-adv-x="393" 
d="M325 0v268q0 52 -35 81.5t-91 29.5q-84 0 -126 -60v-319h-73v28h45v298q55 81 154 81q63 0 107 -33q47 -35 47 -97v-277h-28z" />
    <glyph glyph-name="uni0E21" unicode="&#xe21;" horiz-adv-x="388" 
d="M348 125q0 -57 -41.5 -94.5t-102.5 -37.5q-39 0 -78.5 18.5t-57.5 45.5v-57h-28v400h28v-266q0 -47 42 -80q44 -33 94 -33q52 0 84 28.5t32 75.5v275h28v-275z" />
    <glyph glyph-name="uni0E22" unicode="&#xe22;" horiz-adv-x="387" 
d="M347 55q-53 -61 -152 -61q-80 0 -125 35.5t-45 94.5q0 42 31 76q26 29 55 38q-32 3 -54.5 24.5t-22.5 54.5q0 37 32.5 62.5t78.5 25.5q29 0 49 -7v-28q-20 7 -48 7q-34 0 -57 -15q-25 -15 -25 -45q0 -31 31 -49q24 -15 63 -15h36v-28h-27q-42 0 -75 -27q-37 -28 -37 -73
q0 -46 38.5 -74.5t101.5 -28.5q75 0 124 46v332h28v-345z" />
    <glyph glyph-name="uni0E23" unicode="&#xe23;" horiz-adv-x="362" 
d="M337 122q0 -61 -48 -97q-43 -33 -108 -33t-108 33q-47 36 -48 96h28q2 -49 40 -76q34 -25 88 -25q53 0 88 25q40 28 40 77q0 66 -123 88q-72 13 -103 26q-49 22 -49 64q0 45 44 77q40 28 98 28q57 0 100 -26q45 -28 56 -78h-30q-12 37 -49 58q-35 18 -77 18
q-43 0 -75 -19q-37 -22 -37 -53t42 -47q18 -8 86 -20q145 -27 145 -116z" />
    <glyph glyph-name="uni0E24" unicode="&#xe24;" horiz-adv-x="388" 
d="M320 -150v419q0 51 -35 80.5t-91 29.5q-84 0 -126 -60v-291h70v-28h-98v326q57 81 154 81q65 0 107 -33q47 -34 47 -96v-428h-28z" />
    <glyph glyph-name="uni0E25" unicode="&#xe25;" horiz-adv-x="397" 
d="M329 0v162q-16 35 -55 58t-85 23q-62 0 -99 -35t-37 -90q0 -40 23 -67.5t58 -27.5q29 0 51 13l16 -22q-28 -19 -67 -19q-47 0 -79 38q-30 35 -30 85q0 63 43 106q47 47 121 47q85 0 140 -58v62q0 47 -39 75q-38 29 -90 29q-42 0 -77.5 -22t-48.5 -56h-30q13 47 58 76.5
t101 29.5q61 0 107 -36q47 -39 47 -96v-275h-28z" />
    <glyph glyph-name="uni0E26" unicode="&#xe26;" horiz-adv-x="393" 
d="M325 -150v419q0 51 -35.5 80.5t-90.5 29.5q-84 0 -126 -60v-319h-73v28h45v298q55 81 154 81q63 0 107 -33q47 -35 47 -96v-428h-28z" />
    <glyph glyph-name="uni0E27" unicode="&#xe27;" horiz-adv-x="360" 
d="M335 200q0 -85 -42 -145q-45 -62 -122 -62q-51 0 -93 31t-55 79h29q14 -37 47 -59.5t72 -22.5q64 0 102 55q34 49 34 124t-34 124q-37 55 -102 55q-39 0 -72 -23t-46 -59h-30q13 48 55 79t93 31q78 0 122 -62q42 -59 42 -145z" />
    <glyph glyph-name="uni0E28" unicode="&#xe28;" horiz-adv-x="388" 
d="M320 0v276q0 45 -36.5 74.5t-89.5 29.5t-89.5 -29.5t-36.5 -74.5v-58h126v-29h-126v-189h-28v276q0 57 46 94q47 38 108 38q39 0 76 -17l34 39l22 -16l-30 -37q52 -40 52 -101v-276h-28z" />
    <glyph glyph-name="uni0E29" unicode="&#xe29;" horiz-adv-x="393" 
d="M348 198v-73q0 -58 -46 -95t-108 -37t-108 37t-46 95v275h28v-275q0 -46 36.5 -75t89.5 -29t89.5 29t36.5 75v73h-116v42l23 -14h93v174h28v-174h40v-28h-40z" />
    <glyph glyph-name="uni0E2A" unicode="&#xe2a;" horiz-adv-x="397" 
d="M329 0v162q-15 35 -54.5 58.5t-85.5 23.5q-62 0 -99 -35.5t-37 -90.5q0 -39 23 -67t58 -28q29 0 51 13l16 -22q-28 -19 -67 -19q-47 0 -79 38q-30 35 -30 85q0 61 44 108q45 46 120 46q85 0 140 -58v62q0 46 -39 75q-40 29 -90 29q-41 0 -77 -22t-49 -56h-30
q13 47 58 76.5t101 29.5q38 0 77 -17l33 39l22 -16l-30 -37q52 -40 52 -101v-276h-28z" />
    <glyph glyph-name="uni0E2B" unicode="&#xe2b;" horiz-adv-x="393" 
d="M330 0v197q0 42 -34.5 70t-81.5 28q-8 0 -22 -2l-124 -77v-216h-28v400h28v-151l253 154l22 -15l-109 -69q55 -6 89.5 -39t34.5 -82v-198h-28z" />
    <glyph glyph-name="uni0E2C" unicode="&#xe2c;" horiz-adv-x="488" 
d="M496 445q-13 -48 -70 -63q33 -21 33 -57q0 -15 -4 -28l-76 -297h-24l-112 350l-110 -350h-23l-105 400h27l91 -351l108 351h25l110 -351l63 246q3 13 3 24q0 58 -65 58h-34v23h39q38 0 60 8q29 12 38 44l14 48h28z" />
    <glyph glyph-name="uni0E2D" unicode="&#xe2d;" horiz-adv-x="424" 
d="M399 200q0 -93 -52 -149q-52 -58 -135 -58t-135 58q-52 56 -52 149q0 7 3 34h126v-28h-101v-6q0 -77 44 -129q45 -50 115 -50q69 0 114 50q45 51 45 129q0 79 -44 129t-115 50q-103 0 -144 -98h-30q21 58 66.5 92t107.5 34q83 0 135 -58q52 -56 52 -149z" />
    <glyph glyph-name="uni0E2E" unicode="&#xe2e;" horiz-adv-x="424" 
d="M399 200q0 -93 -52 -149q-52 -58 -135 -58t-135 58q-52 56 -52 149q0 8 3 35h126v-29h-101v-6q0 -77 44 -129q45 -50 115 -50q69 0 114 50q45 51 45 129q0 76 -44 129q-43 51 -115 51q-102 0 -144 -98h-30q21 59 66.5 92.5t107.5 33.5q45 0 84 -19l34 41l20 -14l-31 -40
q80 -59 80 -176z" />
    <glyph glyph-name="uni0E2F" unicode="&#xe2f;" horiz-adv-x="384" 
d="M316 0v294q-55 -65 -165 -65q-57 0 -91.5 25t-34.5 65q0 37 31.5 61.5t77.5 24.5q26 0 49 -7v-28q-26 8 -48 8q-36 0 -57 -15q-25 -16 -25 -44q0 -29 28.5 -47t70.5 -18q66 0 117 33q33 20 47 48v65h28v-400h-28z" />
    <glyph glyph-name="uni0E30" unicode="&#xe30;" horiz-adv-x="138" 
d="M25 296v54h28v-27h65v-27h-93zM25 50v54h28v-27h65v-27h-93z" />
    <glyph glyph-name="uni0E31" unicode="&#xe31;" 
d="M-168 450v60h28v-32h230v-28h-258z" />
    <glyph glyph-name="uni0E32" unicode="&#xe32;" horiz-adv-x="271" 
d="M203 0v258q0 123 -111 123q-45 0 -77 -23v29q42 20 78 20q67 0 105 -41q33 -38 33 -99v-267h-28z" />
    <glyph glyph-name="uni0E33" unicode="&#xe33;" horiz-adv-x="271" 
d="M-7 492q0 -17 -12.5 -29.5t-30.5 -12.5q-17 0 -30 12.5t-13 29.5q0 18 13 30.5t30 12.5q18 0 30.5 -12.5t12.5 -30.5zM203 0v258q0 123 -111 123q-45 0 -77 -23v29q42 20 78 20q67 0 105 -41q33 -38 33 -99v-267h-28zM-28 492q0 23 -23 23t-23 -23t23 -23t23 23z" />
    <glyph glyph-name="uni0E34" unicode="&#xe34;" 
d="M-328 450v28h288v-28h-288z" />
    <glyph glyph-name="uni0E35" unicode="&#xe35;" 
d="M-328 450v28h260v52h28v-80h-288z" />
    <glyph glyph-name="uni0E36" unicode="&#xe36;" 
d="M-12 492q0 -17 -12.5 -29.5t-29.5 -12.5h-274v28h234q-2 4 -2 14q0 18 12.5 30.5t29.5 12.5t29.5 -12.5t12.5 -30.5zM-33 492q0 23 -22 23t-22 -23t22 -23t22 23z" />
    <glyph glyph-name="uni0E37" unicode="&#xe37;" 
d="M-328 450v28h200v52h28v-52h32v52h28v-80h-288z" />
    <glyph glyph-name="uni0E38" unicode="&#xe38;" 
d="M-68 -150v82h-40v28h68v-110h-28z" />
    <glyph glyph-name="uni0E39" unicode="&#xe39;" 
d="M-40 -93q0 -26 -21 -43t-50 -17q-45 0 -67 33v51h-30v29h58v-71q14 -18 41 -18q16 0 28.5 11t12.5 26v52h28v-53z" />
    <glyph glyph-name="uni0E3A" unicode="&#xe3a;" 
d="M-28 -67q0 -27 -27 -27t-27 27t27 27t27 -27z" />
    <glyph glyph-name="uni0E3F" unicode="&#xe3f;" horiz-adv-x="416" 
d="M395 132q0 -63 -44 -97.5t-121 -34.5h-19v-69h-21v69h-148v471h148v54h21v-54h19q76 0 117 -38q32 -32 32 -84q0 -39 -25.5 -67.5t-66.5 -32.5l1 -2q22 3 58 -21q49 -33 49 -94zM350 354q0 92 -120 92h-19v-189h19q58 0 89 26t31 71zM190 446h-119v-189h119v189zM366 132
q0 100 -136 100h-19v-207h19q64 0 100 28t36 79zM190 232h-119v-207h119v207z" />
    <glyph glyph-name="uni0E40" unicode="&#xe40;" horiz-adv-x="128" 
d="M50 0v400h28v-400h-28z" />
    <glyph glyph-name="uni0E41" unicode="&#xe41;" horiz-adv-x="218" 
d="M140 0v400h28v-400h-28zM50 0v400h28v-400h-28z" />
    <glyph glyph-name="uni0E42" unicode="&#xe42;" horiz-adv-x="138" 
d="M51 592q-38 0 -38 -24q0 -13 19 -26q29 -19 37 -27q19 -20 19 -54v-461h-28v462q0 30 -38 56q-37 25 -37 50q0 23 20.5 37.5t51.5 14.5h122v-28h-128z" />
    <glyph glyph-name="uni0E43" unicode="&#xe43;" horiz-adv-x="138" 
d="M139 550q0 -23 -26 -51q-25 -24 -25 -51v-448h-28v453q0 33 25 55q26 24 26 40q0 23 -17.5 37.5t-46.5 14.5t-48 -16t-20 -39h-28q2 33 29.5 56.5t66.5 23.5t65.5 -21.5t26.5 -53.5z" />
    <glyph glyph-name="uni0E44" unicode="&#xe44;" horiz-adv-x="138" 
d="M133 555q-45 -39 -45 -91v-464h-28v457q0 57 44 92l-25 29l-50 -42l-84 67l16 19l68 -53l56 45z" />
    <glyph glyph-name="uni0E45" unicode="&#xe45;" horiz-adv-x="271" 
d="M203 -150v408q0 123 -111 123q-45 0 -77 -23v29q42 20 78 20q67 0 105 -41q33 -38 33 -99v-417h-28z" />
    <glyph glyph-name="uni0E46" unicode="&#xe46;" horiz-adv-x="387" 
d="M319 -150v441q0 78 -69 90l-64 -68l-65 68q-68 -12 -68 -90v-30h82v-28h-110v58q0 51 29.5 82.5t77.5 31.5l54 -55l54 55q48 0 77.5 -31.5t29.5 -82.5v-441h-28z" />
    <glyph glyph-name="uni0E47" unicode="&#xe47;" 
d="M-218 529q-61 0 -61 -47v-5h44l55 32l51 -32h58v-27h-60l-49 33l-50 -33h-77v28q0 34 24 55t68 21h176v-25h-179z" />
    <glyph glyph-name="uni0E48" unicode="&#xe48;" 
d="M-68 560v70h28v-70h-28z" />
    <glyph glyph-name="uni0E49" unicode="&#xe49;" 
d="M-118 560v18q0 21 -19 21h-9v27h16q39 0 39 -30v-9h120v-27h-147z" />
    <glyph glyph-name="uni0E4A" unicode="&#xe4a;" 
d="M18 560v28q0 32 -33 32h-4l-37 -33l-38 33h-2q-33 0 -33 -32v-2h38v-26h-64v33q0 24 17 39t44 15h3l35 -32l35 32h3q28 0 45 -14.5t17 -39.5v-6h64v-27h-90z" />
    <glyph glyph-name="uni0E4B" unicode="&#xe4b;" 
d="M-40 593v-33h-28v33h-35v22h35v33h28v-33h35v-22h-35z" />
    <glyph glyph-name="uni0E4C" unicode="&#xe4c;" 
d="M-44 557q-32 0 -32 -24v-13h-28v17q0 45 46 45h42v-25h-28z" />
    <glyph glyph-name="uni0E4D" unicode="&#xe4d;" 
d="M-11 492q0 -17 -13 -29.5t-30 -12.5q-18 0 -30.5 12.5t-12.5 29.5q0 18 12.5 30.5t30.5 12.5q17 0 30 -12.5t13 -30.5zM-32 492q0 23 -23 23t-23 -23t23 -23t23 23z" />
    <glyph glyph-name="uni0E4E" unicode="&#xe4e;" 
d="M-6 664q-9 2 -29 2q-49 0 -83 -15.5t-34 -41.5q0 -37 59 -34v-22q-37 3 -80 -13t-43 -44q0 -24 39 -24q25 0 51 13l11 -19q-34 -16 -66 -16q-62 0 -62 44q0 27 25.5 47t63.5 25v1q-26 11 -26 43q0 33 42 55.5t103 22.5q19 0 29 -1v-23z" />
    <glyph glyph-name="uni0E4F" unicode="&#xe4f;" horiz-adv-x="480" 
d="M445 200q0 -85 -60 -145t-145 -60t-145 60t-60 145t60 145t145 60t145 -60t60 -145zM415 200q0 73 -52 123q-51 52 -123 52t-124 -52q-51 -51 -51 -123t51 -124q52 -51 124 -51t123 51q52 54 52 124zM365 200q0 -52 -37 -89q-36 -36 -88 -36t-89 36q-36 37 -36 89t36 88
q37 37 89 37t88 -37q37 -36 37 -88z" />
    <glyph glyph-name="uni0E50" unicode="&#xe50;" horiz-adv-x="360" 
d="M335 150q0 -64 -46 -110q-45 -46 -109 -46t-110 46q-45 46 -45 110t45 110q46 46 110 46t109 -46q46 -46 46 -110zM308 150q0 52 -38 92q-38 38 -91 38q-54 0 -92 -38q-37 -37 -37 -92t37 -92q38 -38 92 -38q53 0 91 38t38 92z" />
    <glyph glyph-name="uni0E51" unicode="&#xe51;" horiz-adv-x="384" 
d="M359 153q0 -73 -62 -132q-54 -51 -127 -62l-13 25q67 7 118 54q56 50 56 115q0 56 -40.5 91.5t-101.5 35.5q-56 0 -96 -34q-40 -31 -40 -85q0 -39 25.5 -67t61.5 -28q24 0 31 6q-48 14 -48 62q0 26 19 45t45 19t45 -19t19 -45q0 -39 -33 -66.5t-80 -27.5q-48 0 -80.5 35
t-32.5 86q0 64 51 106q46 39 112 39q70 0 121 -42q50 -44 50 -111zM226 134q0 17 -11 28t-28 11q-16 0 -27.5 -11t-11.5 -28q0 -16 11.5 -27.5t27.5 -11.5q17 0 28 11.5t11 27.5z" />
    <glyph glyph-name="uni0E52" unicode="&#xe52;" horiz-adv-x="539" 
d="M80 0q-12 152 -45 250.5t-96 159.5l22 18q73 -73 103 -172q27 -88 41 -227h366v184q0 29 -17.5 46.5t-44.5 17.5q-43 0 -65 -39v-162h-28v163q-26 38 -71 38q-33 0 -55 -20.5t-22 -52.5v-16q14 10 36 10q26 0 45 -19t19 -45t-19 -45t-45 -19t-45 19t-19 45v70
q0 42 31 71.5t74 29.5q52 0 85 -38q32 38 79 38q37 0 63.5 -24.5t26.5 -61.5v-219h-419zM243 134q0 17 -11 28t-28 11q-16 0 -27.5 -11t-11.5 -28q0 -16 11.5 -27.5t27.5 -11.5q17 0 28 11.5t11 27.5z" />
    <glyph glyph-name="uni0E53" unicode="&#xe53;" horiz-adv-x="459" 
d="M391 0v213q0 29 -19.5 46.5t-47.5 17.5q-48 0 -70 -39v-238h-28v239q-26 38 -76 38q-32 0 -57 -21.5t-25 -51.5v-91q14 10 36 10q26 0 45 -19t19 -46q0 -26 -19 -44.5t-45 -18.5t-45 18.5t-19 44.5v146q0 44 34 72q37 29 76 29q55 0 90 -38q33 38 84 38q38 0 66.5 -24.5
t28.5 -62.5v-218h-28zM143 58q0 17 -11 28.5t-28 11.5t-28 -11.5t-11 -28.5q0 -16 11.5 -27.5t27.5 -11.5q17 0 28 11.5t11 27.5z" />
    <glyph glyph-name="uni0E54" unicode="&#xe54;" horiz-adv-x="414" 
d="M409 420q3 -54 -17 -99q-23 -50 -68 -50h-138q-57 0 -95 -37q-39 -38 -38 -94q3 -59 40 -89q35 -30 85 -30q29 0 57 8q34 8 43 8q-22 11 -39 33q-19 25 -19 53t19.5 47.5t45.5 19.5t45 -19t19 -45q0 -25 -18 -44.5t-43 -20.5q9 -13 53 -21q27 -5 33 -7q18 -6 29 -15
l-17 -22q-34 18 -80 18q-18 0 -57 -10q-41 -9 -75 -9q-60 0 -101 35q-47 41 -48 110q-2 68 47 113q47 46 114 46h138q54 0 57 121h28zM324 126q0 17 -11 28t-28 11q-16 0 -27.5 -11t-11.5 -28t11.5 -28.5t27.5 -11.5t27.5 11.5t11.5 28.5z" />
    <glyph glyph-name="uni0E55" unicode="&#xe55;" horiz-adv-x="414" 
d="M409 420q3 -54 -17 -99q-23 -50 -68 -50h-138q-57 0 -95 -37q-39 -38 -38 -94q3 -59 40 -89q35 -30 85 -30q29 0 57 8q34 8 43 8q-22 11 -39 33q-19 25 -19 53t19.5 47.5t45.5 19.5t45 -19t19 -45q0 -25 -18 -44.5t-43 -20.5q9 -13 53 -21q27 -5 33 -7q18 -6 29 -15
l-17 -22q-34 18 -80 18q-18 0 -57 -10q-41 -9 -75 -9q-60 0 -101 35q-47 41 -48 110q-1 59 36 102.5t94 54.5q-15 15 -15 42t20.5 46.5t47.5 19.5q28 0 48 -19t20 -47q0 -23 -12 -39h28q7 -1 32 -1q54 0 57 121h28zM249 339q0 17 -12 29t-29 12t-29 -12t-12 -29t12 -29.5
t29 -12.5t29 12.5t12 29.5zM324 126q0 17 -11 28t-28 11q-16 0 -27.5 -11t-11.5 -28t11.5 -28.5t27.5 -11.5t27.5 11.5t11.5 28.5z" />
    <glyph glyph-name="uni0E56" unicode="&#xe56;" horiz-adv-x="388" 
d="M363 152q0 -69 -50 -114q-49 -45 -122 -45q-65 0 -109 35q-43 36 -43 83q0 27 19 46t46 19q26 0 45 -19t19 -45q0 -24 -18 -44t-42 -21q35 -26 83 -26q61 0 102 37q42 37 42 94q0 55 -40 89q-41 36 -96 36q-70 0 -124 -51l-28 8q-16 96 -82 160l21 17q72 -61 87 -147
q50 41 126 41q70 0 116 -43q48 -44 48 -110zM143 112q0 17 -11 28t-28 11q-16 0 -27.5 -11t-11.5 -28q0 -16 11.5 -27.5t27.5 -11.5q17 0 28 11.5t11 27.5z" />
    <glyph glyph-name="uni0E57" unicode="&#xe57;" horiz-adv-x="553" 
d="M555 396q-42 -32 -42 -87v-219q0 -46 -33.5 -71t-88.5 -23v218q0 28 -20 45.5t-47 17.5q-48 0 -70 -39v-238h-28v239q-26 38 -76 38q-32 0 -57 -21.5t-25 -50.5v-92q14 10 36 10q26 0 45 -19t19 -46q0 -26 -19 -44.5t-45 -18.5t-45 18.5t-19 44.5v147q0 43 34 71
q37 29 76 29q55 0 90 -38q33 38 84 38q38 0 66.5 -24.5t28.5 -61.5v-195q26 0 46 17.5t20 44.5v227q0 51 48 99zM143 58q0 17 -11 28.5t-28 11.5t-28 -11.5t-11 -28.5q0 -16 11.5 -27.5t27.5 -11.5q17 0 28 11.5t11 27.5z" />
    <glyph glyph-name="uni0E58" unicode="&#xe58;" horiz-adv-x="427" 
d="M406 409q-6 -82 -59 -153q-57 20 -124 20q-72 0 -121 -37t-49 -91q0 -45 28 -79q21 -30 55 -41l70 83l86 -82q32 14 46 30q-21 3 -35.5 20t-14.5 39q0 23 17 40t40 17t40 -18t17 -41q0 -63 -116 -122l-78 73l-62 -73q-51 13 -86 53q-35 44 -35 101q0 68 56 111
q57 45 143 45q67 0 112 -15q38 62 42 122zM377 118q0 32 -32 32t-32 -32q0 -33 32 -33t32 33z" />
    <glyph glyph-name="uni0E59" unicode="&#xe59;" horiz-adv-x="458" 
d="M467 414q2 -22 2 -32q0 -96 -54 -150q-13 46 -47 46q-20 0 -34.5 -18t-16.5 -41q54 -84 69 -217l-28 -4q-14 116 -50 186q-49 94 -133 94q-52 0 -87 -36t-35 -91q0 -58 31 -95t76 -37q-34 16 -34 54q0 27 19 46t45 19t45 -19t19 -46q0 -33 -28 -56t-65 -23q-66 0 -102 49
q-34 43 -34 110q0 66 43 109q44 44 107 44q71 0 120 -56q19 56 73 56q33 0 51 -24q21 45 21 106q0 17 -1 26h28zM229 73q0 17 -11.5 28.5t-27.5 11.5t-27.5 -11.5t-11.5 -28.5q0 -16 11.5 -27.5t27.5 -11.5q17 0 28 11.5t11 27.5z" />
    <glyph glyph-name="uni0E5A" unicode="&#xe5a;" horiz-adv-x="462" 
d="M394 0v294q-18 -21 -50 -38v-256h-28v294q-55 -65 -165 -65q-57 0 -91.5 25t-34.5 65q0 37 31.5 61.5t77.5 24.5q26 0 49 -7v-28q-26 8 -48 8q-36 0 -57 -15q-25 -16 -25 -44q0 -29 28.5 -47t70.5 -18q66 0 117 33q33 20 47 48v65h28v-115q40 26 50 50v65h28v-400h-28z
" />
    <glyph glyph-name="uni0E5B" unicode="&#xe5b;" horiz-adv-x="684" 
d="M668 212q0 -6 -17 -8l-58 -2q-11 -32 -19 -32t-17 22l-16 33l-8 -38q-8 -29 -18 -29q-7 0 -21 29q-18 39 -22 44l-8 -51q-8 -33 -18 -33t-22 37q-15 45 -23 57q-6 -107 -36 -107q-10 0 -22 47q-14 56 -18 67q-5 -69 -41 -129q-49 -82 -128 -82q-56 0 -91 46t-35 119
q0 70 32 119q33 48 83 48q41 0 68.5 -34.5t27.5 -84.5q0 -40 -15.5 -64t-42.5 -24q-21 0 -35.5 17t-14.5 41t14.5 41.5t34.5 17.5q16 0 27 -9q-4 32 -21.5 52t-41.5 20q-37 0 -62 -40.5t-25 -103.5q0 -62 28.5 -98.5t74.5 -36.5q51 0 90.5 52.5t49.5 137.5q4 34 18 34
t27 -37q15 -35 22 -81q4 16 11 71q4 37 17 37q11 0 26 -32q13 -27 23 -69q3 17 7 51q4 31 13 31q18 0 49 -78l3 10l7 30q6 23 16 23q11 0 33 -49q9 33 23 31l54 -6q17 -2 17 -7zM208 221q0 32 -26 32q-9 0 -17 -10t-8 -22t8 -22t17 -10q26 0 26 32z" />
    <glyph glyph-name="zerowidthnonjoiner" unicode="&#x200c;" 
 />
    <glyph glyph-name="zerowidthjoiner" unicode="&#x200d;" 
 />
    <glyph glyph-name="endash" unicode="&#x2013;" horiz-adv-x="362" 
d="M30 154v25h302v-25h-302z" />
    <glyph glyph-name="emdash" unicode="&#x2014;" horiz-adv-x="724" 
d="M30 154v25h664v-25h-664z" />
    <glyph glyph-name="quoteleft" unicode="&#x2018;" horiz-adv-x="135" 
d="M91 449q-22 -9 -22 -61h19v-68h-39v68q0 66 42 83v-22z" />
    <glyph glyph-name="quoteright" unicode="&#x2019;" horiz-adv-x="135" 
d="M85 403q0 -68 -42 -83v22q23 11 23 61h-19v68h38v-68z" />
    <glyph glyph-name="quotedblleft" unicode="&#x201c;" horiz-adv-x="208" 
d="M168 449q-23 -9 -23 -61h19v-68h-39v68q0 67 43 83v-22zM84 449q-22 -9 -22 -61h19v-68h-39v68q0 66 42 83v-22z" />
    <glyph glyph-name="quotedblright" unicode="&#x201d;" horiz-adv-x="208" 
d="M166 403q0 -67 -43 -83v22q23 9 23 61h-19v68h39v-68zM82 403q0 -68 -42 -83v22q23 11 23 61h-19v68h38v-68z" />
    <glyph glyph-name="bullet" unicode="&#x2022;" horiz-adv-x="370" 
d="M335 200q0 -60 -44 -106q-43 -44 -106 -44t-106 44q-44 46 -44 106q0 62 44 106t106 44t106 -44q44 -46 44 -106z" />
    <glyph glyph-name="ellipsis" unicode="&#x2026;" horiz-adv-x="549" 
d="M441 0v63h33v-63h-33zM258 0v63h33v-63h-33zM75 0v63h33v-63h-33z" />
    <glyph glyph-name="thothannobasethai" unicode="&#xf700;" horiz-adv-x="375" 
d="M350 208q0 -96 -63 -157q-62 -62 -160 -54l-50 222h-39v23h63l48 -217q75 -1 124 51t49 132q0 76 -43 124t-112 48q-79 0 -141 -60l-22 18q64 70 165 70q54 0 93 -24l39 46l22 -16l-37 -46q64 -57 64 -160z" />
    <glyph glyph-name="saraileftthai" unicode="&#xf701;" 
d="M-408 450v28h288v-28h-288z" />
    <glyph glyph-name="saraiileftthai" unicode="&#xf702;" 
d="M-408 450v28h260v52h28v-80h-288z" />
    <glyph glyph-name="saraueleftthai" unicode="&#xf703;" 
d="M-91 492q0 -17 -12.5 -29.5t-29.5 -12.5h-274v28h234q-2 8 -2 14q0 18 12.5 30.5t29.5 12.5t29.5 -12.5t12.5 -30.5zM-112 492q0 23 -22 23t-22 -23t22 -23t22 23z" />
    <glyph glyph-name="saraueeleftthai" unicode="&#xf704;" 
d="M-408 450v28h200v52h28v-52h32v52h28v-80h-288z" />
    <glyph glyph-name="maieklowleftthai" unicode="&#xf705;" 
d="M-168 450v90h28v-90h-28z" />
    <glyph glyph-name="maitholowleftthai" unicode="&#xf706;" 
d="M-154 450v19q0 22 -20 22h-10v29h17q41 0 41 -32v-9h126v-29h-154z" />
    <glyph glyph-name="maitrilowleftthai" unicode="&#xf707;" 
d="M-130 450v29q0 34 -34 34h-4l-49 -35l-50 35h-3q-34 0 -34 -34v-5h40v-24h-68v35q0 26 18.5 41.5t46.5 15.5h3l47 -34l46 34h4q28 0 46.5 -15.5t18.5 -41.5v-6h102v-29h-130z" />
    <glyph glyph-name="maichattawalowleftthai" unicode="&#xf708;" 
d="M-149 493v-43h-28v43h-40v24h40v43h28v-43h40v-24h-40z" />
    <glyph glyph-name="thanthakhatlowleftthai" unicode="&#xf709;" 
d="M-126 487q-32 0 -32 -24v-13h-28v17q0 45 46 45h42v-25h-28z" />
    <glyph glyph-name="maieklowrightthai" unicode="&#xf70a;" 
d="M-68 450v90h28v-90h-28z" />
    <glyph glyph-name="maitholowrightthai" unicode="&#xf70b;" 
d="M-136 450v19q0 22 -20 22h-10v29h17q41 0 41 -32v-9h126v-29h-154z" />
    <glyph glyph-name="maitrilowrightthai" unicode="&#xf70c;" 
d="M-103 450v29q0 34 -34 34h-4l-49 -35l-50 35h-3q-34 0 -34 -34v-5h40v-24h-68v35q0 26 18.5 41.5t46.5 15.5h3l47 -34l46 34h4q28 0 46.5 -15.5t18.5 -41.5v-6h67v-29h-95z" />
    <glyph glyph-name="maichattawalowrightthai" unicode="&#xf70d;" 
d="M-80 493v-43h-28v43h-40v24h40v43h28v-43h40v-24h-40z" />
    <glyph glyph-name="thanthakhatlowrightthai" unicode="&#xf70e;" 
d="M-43 487q-32 0 -32 -24v-13h-28v17q0 45 46 45h42v-25h-28z" />
    <glyph glyph-name="yoyingnobasethai" unicode="&#xf70f;" horiz-adv-x="648" 
d="M608 120q0 -56 -41.5 -91.5t-102.5 -35.5t-101 34q-43 36 -43 93v148q0 52 -35 81.5t-91 29.5q-84 0 -126 -60v-291h70v-28h-98v326q57 81 154 81q65 0 107 -33q47 -34 47 -97v-157q0 -49 34 -74q29 -25 82 -25q52 0 84 26.5t32 72.5v280h28v-280z" />
    <glyph glyph-name="maihanakatleftthai" unicode="&#xf710;" 
d="M-227 450v60h28v-32h230v-28h-258z" />
    <glyph glyph-name="nikhahitleftthai" unicode="&#xf711;" 
d="M-92 492q0 -17 -12.5 -29.5t-30.5 -12.5q-17 0 -30 12.5t-13 29.5q0 18 13 30.5t30 12.5q18 0 30.5 -12.5t12.5 -30.5zM-113 492q0 23 -23 23t-23 -23t23 -23t23 23z" />
    <glyph glyph-name="maitaikhuleftthai" unicode="&#xf712;" 
d="M-248 529q-61 0 -61 -47v-5h44l55 32l51 -32h58v-27h-60l-49 33l-50 -33h-77v28q0 34 24 55t68 21h176v-25h-179z" />
    <glyph glyph-name="maiekupperleftthai" unicode="&#xf713;" 
d="M-148 560v70h28v-70h-28z" />
    <glyph glyph-name="maithoupperleftthai" unicode="&#xf714;" 
d="M-178 560v18q0 21 -19 21h-9v27h16q39 0 39 -30v-9h120v-27h-147z" />
    <glyph glyph-name="maitriupperleftthai" unicode="&#xf715;" 
d="M-40 560v28q0 32 -33 32h-4l-37 -33l-38 33h-2q-33 0 -33 -32v-2h38v-26h-64v33q0 24 17 39t44 15h3l35 -32l35 32h3q27 0 44.5 -15t17.5 -39v-6h64v-27h-90z" />
    <glyph glyph-name="maichattawaupperleftthai" unicode="&#xf716;" 
d="M-121 593v-33h-28v33h-35v22h35v33h28v-33h35v-22h-35z" />
    <glyph glyph-name="thanthakhatupperleftthai" unicode="&#xf717;" 
d="M-120 557q-32 0 -32 -24v-13h-28v17q0 45 46 45h42v-25h-28z" />
    <glyph glyph-name="saraulowthai" unicode="&#xf718;" 
d="M-68 -290v82h-40v28h68v-110h-28z" />
    <glyph glyph-name="sarauulowthai" unicode="&#xf719;" 
d="M-40 -233q0 -26 -21 -43t-50 -17q-45 0 -67 33v51h-30v29h58v-71q14 -18 41 -18q16 0 28.5 11t12.5 26v52h28v-53z" />
    <glyph glyph-name="phinthulowthai" unicode="&#xf71a;" 
d="M-40 -207q0 -27 -27 -27t-27 27t27 27t27 -27z" />
    <glyph glyph-name="lochula.short" unicode="&#xf71d;" 
 />
    <glyph glyph-name="fongmanfunnuthai" unicode="&#xf880;" 
 />
    <glyph glyph-name="CR" horiz-adv-x="220" 
 />
    <glyph glyph-name="uni0E33_1" horiz-adv-x="271" 
d="M-92 492q0 -17 -12.5 -29.5t-30.5 -12.5q-17 0 -30 12.5t-13 29.5q0 18 13 30.5t30 12.5q18 0 30.5 -12.5t12.5 -30.5zM203 0v258q0 123 -111 123q-45 0 -77 -23v29q42 20 78 20q67 0 105 -41q33 -38 33 -99v-267h-28zM-113 492q0 23 -23 23t-23 -23t23 -23t23 23z" />
    <glyph glyph-name="uni0E4E_1" 
d="M-22 664q-9 2 -29 2q-48 0 -82.5 -16t-34.5 -41q0 -37 59 -34v-22q-37 3 -80 -13t-43 -44q0 -24 39 -24q25 0 51 13l11 -19q-32 -16 -66 -16q-62 0 -62 44q0 27 25.5 47t63.5 25v1q-26 11 -26 43q0 33 42 55.5t103 22.5q19 0 29 -1v-23z" />
    <glyph glyph-name="F881" 
 />
    <glyph glyph-name="F882" 
 />
    <glyph glyph-name="saraueesp2" 
d="M-178 560v70h28v-70h-28zM-408 450v28h200v52h28v-52h32v52h28v-80h-288z" />
    <glyph glyph-name="saraisp" 
d="M-386 450v28h288v-28h-288z" />
    <glyph glyph-name="saraiisp" 
d="M-386 450v28h260v52h28v-80h-288z" />
    </font>
</defs>
</svg>
