<?xml version="1.0" standalone="no"?>
<!DOCTYPE svg PUBLIC "-//W3C//DTD SVG 1.1//EN" "http://www.w3.org/Graphics/SVG/1.1/DTD/svg11.dtd" >
<svg>
<metadata>
Created by FontForge 20090622 at Tue Jun 27 10:25:11 2017
 By deploy user
Copyright (c) Phanlop Thongsuk, 1995-2010. All rights reserved.
</metadata>
<defs>
<font id="KittithadaLight45Italic" horiz-adv-x="0" >
  <font-face 
    font-family="Kittithada Light 45"
    font-weight="400"
    font-style="italic"
    font-stretch="normal"
    units-per-em="1000"
    panose-1="2 0 5 6 0 0 0 2 0 4"
    ascent="800"
    descent="-200"
    x-height="341"
    cap-height="471"
    bbox="-373 -300 732 781"
    underline-thickness="35"
    underline-position="-61"
    unicode-range="U+0020-U+F880"
  />
<missing-glyph horiz-adv-x="781" 
d="M49 0v781h683v-781h-683zM684 49v683h-586v-683h586z" />
    <glyph glyph-name="saraueesp1" unicode="&#xe37;&#xe48;" 
d="M-57 570l13 70h43l-13 -70h-43zM-310 450l8 40h194l9 50h43l-9 -50h29l9 50h43l-16 -90h-310z" />
    <glyph glyph-name=".notdef" horiz-adv-x="781" 
d="M49 0v781h683v-781h-683zM684 49v683h-586v-683h586z" />
    <glyph glyph-name=".null" 
 />
    <glyph glyph-name="nonmarkingreturn" horiz-adv-x="333" 
 />
    <glyph glyph-name="space" unicode=" " horiz-adv-x="250" 
 />
    <glyph glyph-name="space" unicode="&#xa0;" horiz-adv-x="250" 
 />
    <glyph glyph-name="exclam" unicode="!" horiz-adv-x="157" 
d="M71 117h-23l27 206l26 148h43l-26 -148zM13 0l11 67h55l-12 -67h-54z" />
    <glyph glyph-name="quotedbl" unicode="&#x22;" horiz-adv-x="244" 
d="M161 311l28 160h40l-28 -160h-40zM75 311l28 160h40l-28 -160h-40z" />
    <glyph glyph-name="numbersign" unicode="#" horiz-adv-x="372" 
d="M288 280l-32 -103h69l-5 -30h-73l-47 -147h-33l47 147h-98l-47 -147h-33l47 147h-73l5 30h77l32 103h-72l5 30h76l47 146h33l-47 -146h98l47 146h33l-47 -146h69l-5 -30h-73zM157 280l-32 -103h98l32 103h-98z" />
    <glyph glyph-name="dollar" unicode="$" horiz-adv-x="374" 
d="M333 127q-8 -44 -35 -76q-46 -54 -137 -57l-11 -60h-25l10 60q-158 9 -123 161h40q-23 -111 90 -122l33 188q0 2 -5 2q-59 16 -86 37q-35 31 -25 87q8 46 41 82q46 48 121 49l9 55h26l-10 -56q55 -6 87 -41q33 -39 21 -102h-39q13 93 -76 105l-31 -179q67 -17 95 -36
q42 -33 30 -97zM214 440q-98 -4 -115 -92q-5 -29 16.5 -49.5t68.5 -32.5zM293 126q6 39 -22 61q-24 16 -71 28l-33 -183q44 3 75 22q44 26 51 72z" />
    <glyph glyph-name="percent" unicode="%" horiz-adv-x="585" 
d="M515 115q-23 -125 -125 -125q-104 0 -81 125q22 125 125 125t81 -125zM114 -22h-32l387 500h31zM274 341q-22 -125 -126 -125q-101 0 -79 125q21 125 124 125q104 0 81 -125zM480 114q16 96 -51 96q-69 0 -85 -96q-16 -94 52 -94t84 94zM239 341q17 95 -52 95
q-66 0 -83 -95t50 -95q68 0 85 95z" />
    <glyph glyph-name="ampersand" unicode="&#x26;" horiz-adv-x="407" 
d="M320 0l-37 61q-66 -71 -153 -71q-63 0 -96 34q-36 36 -25 98q14 79 140 140q-19 30 -29 52q-14 30 -8 63q7 41 42 67.5t79 26.5q45 0 70 -26.5t18 -67.5q-12 -66 -115 -124l83 -124q21 32 28 79h41q-12 -68 -47 -113l60 -95h-51zM280 377q5 27 -10 44t-43 17t-49 -17
t-26 -44q-5 -29 38 -98q81 46 90 98zM168 236q-108 -51 -120 -118q-7 -41 19 -68t70 -27q64 0 125 68z" />
    <glyph glyph-name="quotesingle" unicode="'" horiz-adv-x="183" 
d="M86 311l29 160h40l-29 -160h-40z" />
    <glyph glyph-name="parenleft" unicode="(" horiz-adv-x="172" 
d="M75 -104q-67 138 -39 303q28 164 146 304h33q-110 -140 -138 -304q-29 -167 31 -303h-33z" />
    <glyph glyph-name="parenright" unicode=")" horiz-adv-x="172" 
d="M127 199q-29 -165 -146 -303h-32q109 140 137 303q30 166 -31 304h33q69 -138 39 -304z" />
    <glyph glyph-name="asterisk" unicode="*" horiz-adv-x="232" 
d="M163 367l37 -64l-27 -17l-35 67l-59 -67l-21 17l62 64l-73 25l15 27l70 -29l12 81h32l-18 -81l82 29l4 -28z" />
    <glyph glyph-name="plus" unicode="+" horiz-adv-x="362" 
d="M185 148l-23 -134h-36l24 134h-133l6 35h133l24 133h35l-24 -133h134l-6 -35h-134z" />
    <glyph glyph-name="comma" unicode="," horiz-adv-x="183" 
d="M80 -1q-14 -73 -74 -89l5 28q16 6 28 26q11 18 14 36h-28l12 67h55z" />
    <glyph glyph-name="hyphen" unicode="-" horiz-adv-x="244" 
d="M29 162l7 39h165l-7 -39h-165z" />
    <glyph glyph-name="period" unicode="." horiz-adv-x="183" 
d="M25 0l12 67h55l-12 -67h-55z" />
    <glyph glyph-name="slash" unicode="/" horiz-adv-x="220" 
d="M-15 -10h-35l291 491h33z" />
    <glyph glyph-name="zero" unicode="0" horiz-adv-x="362" 
d="M342 228q-43 -238 -202 -238t-117 238t201 238q160 0 118 -238zM300 228q36 203 -82 203t-154 -203t82 -203t154 203z" />
    <glyph glyph-name="one" unicode="1" horiz-adv-x="362" 
d="M142 0l60 342h-120l5 29q66 5 90 15q38 18 54 76h34l-81 -462h-42z" />
    <glyph glyph-name="two" unicode="2" horiz-adv-x="362" 
d="M-15 0q11 74 87 132l141 91q77 54 87 114q8 44 -13 69t-66 25q-54 0 -88.5 -36.5t-42.5 -93.5h-42q13 76 59.5 120.5t118.5 44.5q64 0 94.5 -34t20.5 -96q-12 -69 -81 -123l-128 -81q-76 -47 -95 -94h255l-7 -38h-300z" />
    <glyph glyph-name="three" unicode="3" horiz-adv-x="362" 
d="M318 131q-12 -64 -63 -102.5t-119 -38.5q-73 0 -108 41q-37 41 -20 114h40q-11 -55 14 -87.5t79 -32.5q50 0 88.5 28t46.5 74q9 46 -19 74q-25 24 -73 24h-35l6 35h34q35 0 67 20q33 23 41 64q17 87 -82 87q-51 0 -85 -31.5t-40 -83.5h-41q11 66 58 108t113 42
q61 0 92 -28q36 -32 26 -90q-15 -83 -94 -102v-1q91 -18 74 -114z" />
    <glyph glyph-name="four" unicode="4" horiz-adv-x="362" 
d="M248 114l-20 -114h-37l20 114h-210l6 38l266 310h36l-55 -313h69l-6 -35h-69zM261 400h-1l-215 -251h172z" />
    <glyph glyph-name="five" unicode="5" horiz-adv-x="362" 
d="M318 147q-12 -67 -64 -113q-53 -44 -119 -44t-101.5 39t-25.5 103h40q-7 -48 19 -77.5t74 -29.5q50 0 89 37t47 89q9 51 -18 85.5t-78 34.5q-64 0 -111 -55h-34l84 240h228l-7 -38h-199l-53 -155q42 43 104 43q70 0 104 -44t21 -115z" />
    <glyph glyph-name="six" unicode="6" horiz-adv-x="362" 
d="M327 147q-14 -70 -64 -113q-52 -44 -119 -44q-158 0 -118 235q15 83 51 144q57 97 154 97q125 0 119 -121h-40q2 39 -20 62.5t-61 23.5q-70 0 -115 -72q-32 -54 -47 -135h1q22 34 59.5 55t75.5 21q67 0 101 -43t23 -110zM284 144q9 53 -14.5 87.5t-73.5 34.5
q-51 0 -88 -34t-46 -88q-9 -53 15 -86t77 -33q47 0 84 34.5t46 84.5z" />
    <glyph glyph-name="seven" unicode="7" horiz-adv-x="362" 
d="M360 418q-81 -71 -136 -150q-91 -129 -121 -268h-44q53 236 252 418h-244l7 38h293z" />
    <glyph glyph-name="eight" unicode="8" horiz-adv-x="362" 
d="M321 129q-12 -66 -65 -104q-50 -35 -117 -35q-66 0 -104 35q-41 38 -28 104q9 46 38.5 77.5t71.5 40.5v2q-67 21 -53 101q11 57 60 88q43 28 99 28q58 0 89 -28q38 -32 28 -88q-14 -80 -89 -102v-1q88 -19 70 -118zM300 350q7 37 -16.5 59t-66.5 22q-41 0 -73 -22
t-39 -59q-8 -46 20 -66q20 -19 62 -19q44 0 75 22t38 63zM279 129q9 48 -21 76q-25 25 -76 25q-50 0 -87.5 -27t-46.5 -74q-9 -49 21 -78q28 -26 76 -26q52 0 89 27.5t45 76.5z" />
    <glyph glyph-name="nine" unicode="9" horiz-adv-x="362" 
d="M338 236q-18 -98 -51 -151q-57 -95 -154 -95q-125 0 -118 121h40q-2 -39 19.5 -63t60.5 -24q70 0 115 72q33 55 46 135h-1q-23 -34 -59.5 -55t-74.5 -21q-69 0 -102.5 42.5t-21.5 111.5q12 68 64 112q51 45 119 45q159 0 118 -230zM302 312q9 53 -14 83q-26 35 -79 35
q-47 0 -84 -34.5t-45 -83.5q-9 -53 14.5 -87.5t73.5 -34.5q52 0 89 36q34 33 45 86z" />
    <glyph glyph-name="colon" unicode=":" horiz-adv-x="183" 
d="M71 263l12 67h55l-12 -67h-55zM25 0l12 67h55l-12 -67h-55z" />
    <glyph glyph-name="semicolon" unicode=";" horiz-adv-x="183" 
d="M71 263l12 67h55l-12 -67h-55zM80 -1q-14 -73 -74 -89l5 28q16 6 28 26q11 18 14 36h-28l12 67h55z" />
    <glyph glyph-name="less" unicode="&#x3c;" horiz-adv-x="362" 
d="M17 149l6 36l330 154l-7 -38l-285 -134l237 -134l-6 -38z" />
    <glyph glyph-name="equal" unicode="=" horiz-adv-x="362" 
d="M28 214l6 35h302l-5 -35h-303zM5 84l7 35h302l-6 -35h-303z" />
    <glyph glyph-name="greater" unicode="&#x3e;" horiz-adv-x="362" 
d="M-10 -5l6 38l285 134l-238 134l7 38l275 -154l-6 -36z" />
    <glyph glyph-name="question" unicode="?" horiz-adv-x="354" 
d="M343 359q-9 -50 -46 -87l-67 -56q-37 -36 -43 -76l-4 -22h-42l3 17q9 52 46 91l69 60q36 31 42 71q7 38 -16 63.5t-63 25.5q-51 0 -84.5 -33t-42.5 -87h-41q13 72 60 113.5t116 41.5q59 0 91 -33.5t22 -88.5zM113 0l12 67h56l-12 -67h-56z" />
    <glyph glyph-name="at" unicode="@" horiz-adv-x="528" 
d="M506 276q-12 -76 -71 -135q-59 -57 -115 -57q-50 0 -37 45h-2q-49 -44 -92 -44q-38 0 -57.5 27.5t-11.5 68.5q12 71 66 130q57 61 125 61q48 0 60 -56l23 43h35l-96 -190q-10 -19 -14 -36q-3 -19 12 -19q42 0 86 53q43 52 55 111q14 79 -34 127q-43 46 -123 46
q-91 0 -162 -63q-68 -61 -85 -155q-18 -96 32 -155q47 -58 140 -58q50 0 101 24t84 64h34q-39 -54 -100 -86t-124 -32q-109 0 -166 65q-55 67 -36 183q18 101 101 172t184 71q98 0 150 -58q54 -57 38 -147zM342 275q5 23 -8 42.5t-33 19.5q-45 0 -90 -53q-40 -49 -49 -100
q-5 -29 7 -46.5t37 -17.5q42 0 86 56q40 49 50 99z" />
    <glyph glyph-name="A" unicode="A" horiz-adv-x="410" 
d="M328 0l-29 147h-214l-82 -147h-48l271 471h50l100 -471h-48zM243 426h-2l-136 -241h185z" />
    <glyph glyph-name="B" unicode="B" horiz-adv-x="433" 
d="M396 134q-24 -134 -191 -134h-197l83 471h197q74 0 106 -29.5t22 -89.5q-15 -86 -100 -104v-1q44 -6 66 -37t14 -76zM371 345q15 87 -90 87h-153l-30 -167h153q105 0 120 80zM351 135q7 46 -19 68.5t-87 22.5h-154l-33 -188h153q122 0 140 97z" />
    <glyph glyph-name="C" unicode="C" horiz-adv-x="458" 
d="M429 178q-23 -87 -84 -137.5t-143 -50.5q-104 0 -150 75q-43 66 -25 170t85 171q72 75 177 75q69 0 116 -39q49 -42 44 -113h-44q0 52 -34.5 83t-88.5 31q-86 0 -145 -65q-51 -59 -66 -143q-15 -85 16 -142q37 -65 122 -65q64 0 112 44q47 41 64 106h44z" />
    <glyph glyph-name="D" unicode="D" horiz-adv-x="445" 
d="M424 235q-42 -235 -254 -235h-162l83 471h162q213 0 171 -236zM379 235q19 105 -18.5 151t-139.5 46h-93l-70 -394h93q101 0 155 46.5t73 150.5z" />
    <glyph glyph-name="E" unicode="E" horiz-adv-x="385" 
d="M8 0l83 471h319l-7 -39h-275l-30 -169h257l-7 -39h-257l-33 -186h278l-6 -38h-322z" />
    <glyph glyph-name="F" unicode="F" horiz-adv-x="349" 
d="M128 432l-30 -169h224l-7 -39h-224l-39 -224h-44l83 471h293l-7 -39h-249z" />
    <glyph glyph-name="G" unicode="G" horiz-adv-x="484" 
d="M375 0l8 78h-1q-62 -88 -179 -88q-105 0 -151 75q-43 67 -25 170q18 104 85 171q74 75 178 75q76 0 121 -39q47 -41 46 -117h-44q1 44 -31 80q-38 38 -99 38q-86 0 -145 -65q-52 -58 -67 -143q-15 -84 17 -142q35 -65 122 -65q77 0 129 49q52 47 64 124h-161l7 39h199
l-42 -240h-31z" />
    <glyph glyph-name="H" unicode="H" horiz-adv-x="460" 
d="M329 0l40 228h-277l-40 -228h-44l83 471h44l-36 -204h277l36 204h45l-83 -471h-45z" />
    <glyph glyph-name="I" unicode="I" horiz-adv-x="147" 
d="M12 0l83 471h45l-83 -471h-45z" />
    <glyph glyph-name="J" unicode="J" horiz-adv-x="325" 
d="M262 131q-16 -75 -49 -106q-40 -35 -112 -35q-142 0 -101 161h43q-8 -49 -2 -77q10 -46 71 -46q50 0 74 27.5t35 94.5l57 321h44z" />
    <glyph glyph-name="K" unicode="K" horiz-adv-x="422" 
d="M335 0l-148 247l-107 -89l-28 -158h-44l83 471h44l-45 -253l315 253h60l-243 -194l169 -277h-56z" />
    <glyph glyph-name="L" unicode="L" horiz-adv-x="347" 
d="M8 0l83 471h44l-77 -433h258l-6 -38h-302z" />
    <glyph glyph-name="M" unicode="M" horiz-adv-x="543" 
d="M413 0l72 408h-2l-230 -408h-42l-87 408h-1l-72 -408h-45l83 471h65l88 -414l233 414h66l-83 -471h-45z" />
    <glyph glyph-name="N" unicode="N" horiz-adv-x="458" 
d="M323 0l-200 401h-1l-70 -401h-45l83 471h50l200 -398h1l70 398h45l-83 -471h-50z" />
    <glyph glyph-name="O" unicode="O" horiz-adv-x="484" 
d="M464 235q-18 -103 -85 -170q-73 -75 -178 -75q-102 0 -152 75q-43 67 -25 170q18 104 85 171q75 75 179 75q103 0 151 -75q43 -67 25 -171zM420 235q15 84 -17 143q-38 65 -122 65q-86 0 -146 -65q-52 -58 -67 -143q-15 -84 17 -142q37 -65 123 -65t145 65q52 58 67 142z
" />
    <glyph glyph-name="P" unicode="P" horiz-adv-x="410" 
d="M411 335q-11 -63 -55 -100t-107 -37h-163l-34 -198h-44l83 471h206q63 0 94 -36.5t20 -99.5zM367 335q8 46 -15.5 71.5t-71.5 25.5h-152l-35 -197h152q48 0 80.5 26t41.5 74z" />
    <glyph glyph-name="Q" unicode="Q" horiz-adv-x="484" 
d="M464 235q-21 -119 -104 -186l58 -52l-27 -27l-63 55q-56 -35 -127 -35q-102 0 -152 75q-43 67 -25 170q18 104 85 171q75 75 179 75q103 0 151 -75q43 -67 25 -171zM420 235q15 84 -17 143q-38 65 -122 65q-86 0 -146 -65q-52 -58 -67 -143q-15 -84 17 -142
q37 -65 123 -65q48 0 91 23l-53 47l28 29l59 -52q69 59 87 160z" />
    <glyph glyph-name="R" unicode="R" horiz-adv-x="435" 
d="M327 0q-8 14 1 73q7 66 0 93q-13 43 -69 43h-171l-36 -209h-44l83 471h214q61 0 94 -30q36 -32 26 -93q-18 -102 -109 -120l-1 -1q73 -9 60 -106l-7 -64q-3 -43 8 -57h-49zM379 340q17 92 -84 92h-167l-33 -185h167q43 0 76.5 26t40.5 67z" />
    <glyph glyph-name="S" unicode="S" horiz-adv-x="410" 
d="M369 125q-7 -45 -41 -80q-54 -55 -160 -55q-88 0 -129 39q-45 42 -27 124h44q-13 -63 19.5 -94t109.5 -31q45 0 83 22q48 26 56 74q9 45 -36 68q-22 11 -102 30q-67 16 -96 37q-41 32 -30 89q9 49 46 84q52 49 138 49q74 0 114 -37q44 -41 32 -109h-44q7 50 -24 79
t-84 29q-117 0 -133 -94q-9 -53 66 -75l139 -38q72 -33 59 -111z" />
    <glyph glyph-name="T" unicode="T" horiz-adv-x="357" 
d="M238 432l-76 -432h-44l76 432h-160l7 39h363l-7 -39h-159z" />
    <glyph glyph-name="U" unicode="U" horiz-adv-x="447" 
d="M396 170q-16 -82 -65 -126q-57 -54 -148 -54t-130 54q-35 47 -20 126l53 301h45l-51 -291q-27 -152 110 -152q134 0 163 152l51 291h45z" />
    <glyph glyph-name="V" unicode="V" horiz-adv-x="385" 
d="M180 0h-52l-90 471h47l76 -423h1l227 423h47z" />
    <glyph glyph-name="W" unicode="W" horiz-adv-x="590" 
d="M422 0h-48l-43 422h-1l-192 -422h-48l-48 471h45l38 -409l187 409h55l41 -409h1l182 409h45z" />
    <glyph glyph-name="X" unicode="X" horiz-adv-x="373" 
d="M289 0l-105 208l-180 -208h-51l211 242l-118 229h50l99 -197l170 197h50l-200 -229l125 -242h-51z" />
    <glyph glyph-name="Y" unicode="Y" horiz-adv-x="397" 
d="M216 192l-34 -192h-45l33 192l-133 279h52l111 -242l196 242h52z" />
    <glyph glyph-name="Z" unicode="Z" horiz-adv-x="377" 
d="M-36 0l7 40l378 392h-288l7 39h339l-7 -39l-381 -394h316l-6 -38h-365z" />
    <glyph glyph-name="bracketleft" unicode="[" horiz-adv-x="157" 
d="M-11 -104l107 607h107l-6 -35h-65l-94 -537h65l-7 -35h-107z" />
    <glyph glyph-name="backslash" unicode="\" horiz-adv-x="217" 
d="M150 -10l-114 491h33l116 -491h-35z" />
    <glyph glyph-name="bracketright" unicode="]" horiz-adv-x="157" 
d="M-54 -104l6 35h65l94 537h-65l6 35h106l-107 -607h-105z" />
    <glyph glyph-name="asciicircum" unicode="^" horiz-adv-x="390" 
d="M310 157l-81 257l-173 -257h-39l202 299h34l96 -299h-39z" />
    <glyph glyph-name="underscore" unicode="_" horiz-adv-x="330" 
d="M-53 -82l6 33h329l-6 -33h-329z" />
    <glyph glyph-name="grave" unicode="`" horiz-adv-x="120" 
d="M95 388l-70 93h54l50 -93h-34z" />
    <glyph glyph-name="a" unicode="a" horiz-adv-x="338" 
d="M293 3q-15 -3 -27 -3q-48 0 -39 55h-2q-53 -65 -133 -65q-48 0 -74 24q-29 28 -20 76q11 64 72 86q31 13 127 23q28 3 39 11q16 10 21 36q6 35 -13 52t-63 17q-85 0 -103 -80h-41q27 115 154 115q126 0 107 -109l-32 -181q-4 -25 19 -25q8 0 14 3zM247 186h-1
q-8 -11 -38 -15q-44 -9 -107 -19q-54 -16 -62 -60q-6 -29 13 -48t50 -19q49 0 87.5 30t47.5 77z" />
    <glyph glyph-name="b" unicode="b" horiz-adv-x="373" 
d="M342 170q-13 -75 -61 -126q-49 -54 -123 -54q-90 0 -108 73h-1l-11 -63h-38l83 471h41l-34 -193h1q18 34 56 54q35 18 75 18q71 0 104 -54q29 -51 16 -126zM300 170q10 55 -8 99q-21 46 -77 46q-60 0 -100 -46q-33 -38 -44 -99q-11 -57 9 -99q24 -46 84 -46q56 0 92 46
q32 39 44 99z" />
    <glyph glyph-name="c" unicode="c" horiz-adv-x="338" 
d="M303 122q-14 -60 -59 -96t-104 -36q-75 0 -109 54q-31 51 -18 126q12 76 64 128t127 52q57 0 88 -30.5t28 -86.5h-40q-3 82 -83 82q-54 0 -96 -45q-36 -39 -47 -100q-10 -57 12 -99q25 -46 80 -46q40 0 72.5 27t43.5 70h41z" />
    <glyph glyph-name="d" unicode="d" horiz-adv-x="373" 
d="M257 0l11 63h-1q-18 -32 -56 -52.5t-78 -20.5q-73 0 -104 54q-29 51 -15 126q14 76 60 126q49 54 122 54q41 0 70.5 -18.5t35.5 -51.5h2l34 191h40l-83 -471h-38zM285 170q11 61 -10 99q-22 46 -85 46q-53 0 -92 -46q-33 -42 -43 -99q-11 -55 8 -99q22 -46 76 -46
q62 0 101 46q33 39 45 99z" />
    <glyph glyph-name="e" unicode="e" horiz-adv-x="340" 
d="M51 159q-10 -51 10 -90q24 -44 77 -44q85 0 122 87h41q-50 -122 -169 -122q-76 0 -107 54q-28 51 -13 126q14 75 58 124q50 56 125 56q77 0 107 -59q24 -53 9 -132h-260zM276 194q7 52 -16.5 86.5t-70.5 34.5t-84 -37q-33 -33 -48 -84h219z" />
    <glyph glyph-name="f" unicode="f" horiz-adv-x="173" 
d="M224 430q-5 8 -39 5q-29 -1 -42 -21q-11 -14 -15 -45l-5 -28h66l-6 -35h-66l-54 -306h-41l54 306h-57l6 35h57l6 35q8 47 31 70t68 25q13 2 43 -4z" />
    <glyph glyph-name="g" unicode="g" horiz-adv-x="363" 
d="M290 28q-28 -164 -180 -164q-55 0 -88 24q-37 28 -33 79h42q0 -67 86 -67q111 0 133 128l7 39h-2q-43 -67 -120 -67q-75 0 -107 53q-27 49 -14 126q13 72 63 122q49 49 119 49q37 0 63.5 -18t33.5 -47h2l10 56h40zM275 174q11 57 -9 96q-22 45 -76 45q-53 0 -92 -44
q-33 -39 -44 -97q-9 -58 10 -96q22 -43 77 -43q50 0 89 44q36 39 45 95z" />
    <glyph glyph-name="h" unicode="h" horiz-adv-x="349" 
d="M233 0l37 213q18 102 -69 102q-48 0 -82.5 -32.5t-42.5 -83.5l-35 -199h-42l83 471h42l-33 -187h1q18 30 50.5 48t68.5 18q123 0 101 -131l-39 -219h-40z" />
    <glyph glyph-name="i" unicode="i" horiz-adv-x="120" 
d="M71 403l12 68h42l-12 -68h-42zM0 0l60 341h42l-60 -341h-42z" />
    <glyph glyph-name="j" unicode="j" horiz-adv-x="120" 
d="M71 403l12 68h42l-12 -68h-42zM35 -39q-17 -87 -87 -87q-17 0 -33 2l6 38q22 -2 28 -2q35 1 44 49l67 380h42z" />
    <glyph glyph-name="k" unicode="k" horiz-adv-x="325" 
d="M242 0l-103 185l-77 -61l-21 -124h-41l83 471h41l-52 -295l215 165h54l-169 -131l119 -210h-49z" />
    <glyph glyph-name="l" unicode="l" horiz-adv-x="122" 
d="M1 0l83 471h42l-83 -471h-42z" />
    <glyph glyph-name="m" unicode="m" horiz-adv-x="542" 
d="M423 0l40 228q15 87 -62 87q-93 0 -114 -122l-34 -193h-42l40 231q15 84 -55 84q-49 0 -83 -37q-29 -35 -39 -88l-33 -190h-41l60 341h38l-10 -55h1q40 64 119 64q82 0 88 -66q40 66 116 66q112 0 91 -119l-40 -231h-40z" />
    <glyph glyph-name="n" unicode="n" horiz-adv-x="349" 
d="M233 0l37 213q18 102 -69 102q-48 0 -82.5 -32.5t-42.5 -83.5l-35 -199h-42l60 341h42l-10 -57h1q15 30 48.5 48t70.5 18q123 0 101 -131l-39 -219h-40z" />
    <glyph glyph-name="o" unicode="o" horiz-adv-x="363" 
d="M333 170q-14 -76 -64 -126q-54 -54 -129 -54t-109 54q-31 51 -18 126q12 76 64 128t127 52t110 -53q31 -49 19 -127zM291 170q10 58 -13 100q-24 45 -81 45q-54 0 -96 -45q-36 -39 -47 -100q-10 -57 12 -99q25 -46 80 -46q57 0 97 46q37 41 48 99z" />
    <glyph glyph-name="p" unicode="p" horiz-adv-x="373" 
d="M342 170q-13 -75 -61 -126q-49 -54 -123 -54q-90 0 -105 71h-1l-33 -187h-41l82 467h38l-11 -63h1q40 72 134 72q71 0 104 -54q29 -51 16 -126zM300 170q10 55 -8 99q-21 46 -77 46q-119 0 -144 -145q-11 -57 9 -99q24 -46 84 -46q56 0 92 46q32 39 44 99z" />
    <glyph glyph-name="q" unicode="q" horiz-adv-x="373" 
d="M231 -126l34 187h-1q-42 -71 -131 -71q-73 0 -105 54q-28 51 -15 126q13 76 60 126q51 54 123 54q92 0 109 -72h1l11 63h38l-83 -467h-41zM284 170q25 145 -94 145q-55 0 -92 -46q-33 -42 -43 -99q-11 -55 8 -99q21 -46 76 -46q62 0 101 46q32 37 44 99z" />
    <glyph glyph-name="r" unicode="r" horiz-adv-x="205" 
d="M219 303q-52 5 -95 -32q-42 -36 -51 -90l-32 -181h-41l60 341h38l-13 -73h1q19 36 58 58t83 19z" />
    <glyph glyph-name="s" unicode="s" horiz-adv-x="312" 
d="M270 92q-9 -51 -58 -79q-43 -23 -95 -23q-132 0 -117 118h41q-6 -40 19 -62q22 -21 65 -21q35 0 63 15q34 15 40 50q6 40 -47 58l-100 28q-53 22 -43 79q7 47 50 73q37 22 87 22q62 0 89.5 -27t19.5 -80h-40q5 36 -14 54t-62 18q-30 0 -55 -14q-28 -16 -34 -44
q-6 -38 47 -54l102 -28q53 -26 42 -83z" />
    <glyph glyph-name="t" unicode="t" horiz-adv-x="194" 
d="M136 -3q-20 -2 -38 -1q-42 2 -55.5 19t-5.5 58l41 233h-58l6 35h58l18 102h41l-18 -102h70l-7 -35h-69l-41 -230q-7 -42 27 -45q22 -3 37 2z" />
    <glyph glyph-name="u" unicode="u" horiz-adv-x="351" 
d="M236 0l10 57h-1q-46 -67 -129 -67q-120 0 -96 129l39 222h42l-39 -222q-16 -94 73 -94q49 0 85 42q30 36 41 95l32 179h40l-60 -341h-37z" />
    <glyph glyph-name="v" unicode="v" horiz-adv-x="301" 
d="M133 0h-43l-71 341h44l56 -295h1l160 295h44z" />
    <glyph glyph-name="w" unicode="w" horiz-adv-x="469" 
d="M323 0h-44l-33 286h-1l-132 -286h-45l-48 341h43l36 -290h1l133 290h46l31 -290h1l138 290h43z" />
    <glyph glyph-name="x" unicode="x" horiz-adv-x="312" 
d="M226 0l-83 147l-134 -147h-47l161 177l-91 164h48l73 -133l122 133h48l-150 -164l100 -177h-47z" />
    <glyph glyph-name="y" unicode="y" horiz-adv-x="300" 
d="M106 -52q-24 -44 -44.5 -59.5t-58.5 -14.5q-22 0 -31 3l7 35q13 -3 27 -3q23 0 40 14q13 11 28 39l21 39l-74 340h42l60 -292l156 292h42z" />
    <glyph glyph-name="z" unicode="z" horiz-adv-x="301" 
d="M-29 0l5 33l269 273h-207l6 35h259l-5 -30l-273 -276h233l-6 -35h-281z" />
    <glyph glyph-name="braceleft" unicode="{" horiz-adv-x="217" 
d="M103 -104q-63 0 -48 82l17 98q19 106 -28 106l7 35q46 0 64 104l18 100q15 82 76 82h32l-6 -34h-17q-35 0 -45 -58l-18 -104q-14 -76 -64 -107v-1q40 -32 26 -107l-18 -103q-10 -58 25 -58h17l-7 -35h-31z" />
    <glyph glyph-name="bar" unicode="|" horiz-adv-x="145" 
d="M55 -10v491h35v-491h-35z" />
    <glyph glyph-name="braceright" unicode="}" horiz-adv-x="217" 
d="M157 182q-46 0 -65 -106l-17 -98q-15 -82 -76 -82h-33l7 35h17q35 0 45 58l18 103q13 76 64 107v1q-39 32 -26 107l18 104q10 58 -25 58h-17l6 34h32q63 0 48 -82l-18 -100q-18 -104 28 -104z" />
    <glyph glyph-name="asciitilde" unicode="~" horiz-adv-x="390" 
d="M338 184q-40 -57 -91 -57q-27 0 -68 21q-40 22 -65 22q-33 0 -63 -45l-19 23q39 57 93 57q31 0 69 -22q39 -21 60 -21q32 0 65 46z" />
    <glyph glyph-name="currency" unicode="&#xa4;" horiz-adv-x="410" 
d="M206 356q-46 0 -78 -33q-32 -37 -32 -78q0 -46 31 -80q31 -33 79 -33q45 0 77 33q31 31 31 80q0 46 -31 78.5t-77 32.5zM4 80l72 71q-30 40 -30 94q0 56 30 92l-72 73l37 35l71 -71q40 29 94 29q58 0 92 -29l73 71l35 -35l-71 -73q29 -40 29 -92q0 -54 -29 -94l71 -71
l-35 -37l-73 72q-15 -12 -41 -21q-25 -9 -51 -9q-54 0 -94 30l-71 -72z" />
    <glyph glyph-name="FL00A9h" unicode="&#xa9;" horiz-adv-x="528" 
d="M512 236q-18 -104 -101 -175q-85 -71 -188 -71t-162 71q-60 70 -40 175q18 103 101 174t188 71q106 0 162 -71q58 -70 40 -174zM474 236q15 88 -34 149q-47 61 -137 61t-158 -61q-70 -61 -85 -149q-16 -88 32 -150q48 -61 137 -61t159 61q69 60 86 150zM385 184
q-16 -47 -53.5 -73.5t-85.5 -26.5q-65 0 -96.5 42t-20.5 110q12 68 58 109.5t112 41.5q49 0 77 -26.5t27 -73.5h-34q0 69 -75 70q-51 0 -86 -33.5t-43 -87.5q-11 -55 12.5 -88.5t74.5 -33.5q74 0 99 70h34z" />
    <glyph glyph-name="guillemotleft" unicode="&#xab;" horiz-adv-x="277" 
d="M133 161l7 41l103 82l-8 -44l-73 -58l52 -59l-7 -44zM28 161l7 41l103 82l-8 -44l-73 -58l52 -59l-7 -44z" />
    <glyph glyph-name="logicalnot" unicode="&#xac;" horiz-adv-x="362" 
d="M301 58v87h-280v44h320v-131h-40z" />
    <glyph glyph-name="minus" unicode="&#xad;" horiz-adv-x="362" 
d="M17 148l6 35h302l-6 -35h-302z" />
    <glyph glyph-name="registered" unicode="&#xae;" horiz-adv-x="528" 
d="M512 236q-18 -104 -101 -175q-85 -71 -188 -71t-162 71q-60 70 -40 175q18 103 101 174t188 71q106 0 162 -71q58 -70 40 -174zM474 236q15 88 -34 149q-47 61 -137 61t-158 -61q-70 -61 -85 -149q-16 -88 32 -150q48 -61 137 -61t159 61q69 60 86 150zM326 94l-57 126
h-60l-22 -126h-35l50 284h110q92 0 77 -79q-12 -68 -84 -79l62 -126h-41zM354 299q4 25 -10.5 37t-47.5 12h-64l-18 -99h46q47 0 61 7q28 11 33 43z" />
    <glyph glyph-name="degree" unicode="&#xb0;" horiz-adv-x="264" 
d="M130 447q42 0 71 -29t29 -70t-29 -70t-71 -29q-40 0 -69 28.5t-29 70.5q0 40 28.5 69.5t69.5 29.5zM130 419q-31 0 -51 -20t-20 -51q0 -29 21 -50.5t50 -21.5q30 0 51 21q22 22 22 51t-21.5 50t-51.5 21z" />
    <glyph glyph-name="paragraph" unicode="&#xb6;" horiz-adv-x="355" 
d="M307 -119h-30v662h-71v-662h-27v393q-81 0 -128 30q-51 36 -51 115q0 75 46 112q44 32 121 32h190v-20h-50v-662z" />
    <glyph glyph-name="middot" unicode="&#xb7;" horiz-adv-x="165" 
d="M83 254q15 0 25 -10.5t10 -24.5q0 -15 -10.5 -25.5t-24.5 -10.5q-16 0 -26 10t-10 26q0 15 10 25t26 10z" />
    <glyph glyph-name="middot" unicode="&#x2219;" horiz-adv-x="165" 
d="M83 254q15 0 25 -10.5t10 -24.5q0 -15 -10.5 -25.5t-24.5 -10.5q-16 0 -26 10t-10 26q0 15 10 25t26 10z" />
    <glyph glyph-name="guillemotright" unicode="&#xbb;" horiz-adv-x="277" 
d="M125 79l7 44l74 59l-53 58l8 44l73 -82l-7 -41zM20 79l7 44l74 59l-53 58l8 44l73 -82l-7 -41z" />
    <glyph glyph-name="multiply" unicode="&#xd7;" horiz-adv-x="362" 
d="M267 18l-101 123l-144 -122l-21 24l144 123l-100 122l29 25l100 -123l145 123l21 -24l-145 -123l101 -123z" />
    <glyph glyph-name="divide" unicode="&#xf7;" horiz-adv-x="362" 
d="M231 299q-2 -15 -15 -26t-28 -11t-24 11t-7 26q3 15 16 26t28 11t24 -11t6 -26zM17 148l6 35h302l-6 -35h-302zM184 33q-3 -15 -15.5 -26t-27.5 -11t-24 11t-7 26q3 15 16 26t28 11t24 -11t6 -26z" />
    <glyph glyph-name="uni0E00" unicode="&#xe00;" horiz-adv-x="100" 
 />
    <glyph glyph-name="uni0E01" unicode="&#xe01;" horiz-adv-x="396" 
d="M274 0l47 268q8 48 -21 74q-27 24 -76 24q-80 0 -125 -54l-55 -312h-43l57 324q71 83 173 83q65 0 104 -33q42 -38 30 -99l-48 -275h-43z" />
    <glyph glyph-name="uni0E02" unicode="&#xe02;" horiz-adv-x="360" 
d="M304 133q-10 -60 -58 -100q-46 -40 -108 -40q-66 0 -102 47q-36 46 -24 117q16 91 115 162l-36 63l40 24l51 -90q-114 -80 -127 -159q-9 -52 16.5 -87.5t73.5 -35.5q43 0 75.5 28t40.5 71l47 267h43z" />
    <glyph glyph-name="uni0E03" unicode="&#xe03;" horiz-adv-x="365" 
d="M310 134q-11 -60 -58 -100.5t-107 -40.5q-67 0 -102 45q-34 45 -22 116q17 96 120 153l6 37l-41 -32q-6 12 -16 22q-22 25 -49 40l30 31q28 -15 50 -39l39 34h39l-19 -111q-46 -20 -76 -53q-34 -37 -42 -82q-10 -53 15.5 -86.5t74.5 -33.5q42 0 74.5 28.5t40.5 71.5
l46 266h43z" />
    <glyph glyph-name="uni0E04" unicode="&#xe04;" horiz-adv-x="396" 
d="M274 0l48 273q7 41 -21.5 66t-77.5 25t-86.5 -25.5t-44.5 -65.5l-9 -49h123l-7 -42h-123l-32 -182h-43l48 273q11 59 64 96q53 38 118 38q63 0 104 -38q41 -37 30 -96l-48 -273h-43z" />
    <glyph glyph-name="uni0E05" unicode="&#xe05;" horiz-adv-x="416" 
d="M294 0l49 279q6 33 -6.5 58t-38.5 29l-79 -79l-51 79q-26 -4 -47.5 -29t-27.5 -58l-10 -55h133l-8 -42h-132l-32 -182h-43l49 279q10 55 48.5 91.5t91.5 36.5l40 -59l62 59q52 0 78 -36.5t16 -91.5l-49 -279h-43z" />
    <glyph glyph-name="uni0E06" unicode="&#xe06;" horiz-adv-x="401" 
d="M344 126q-10 -62 -54 -97.5t-105 -35.5q-88 0 -125 61l-9 -54h-43l42 243q4 25 39 48q36 23 37 38l4 17l-46 -30q-7 17 -52 59l34 30q17 -15 33 -36l45 31h38l-14 -78q-3 -18 -38 -40q-33 -21 -38 -45l-17 -98q-7 -40 25 -75q33 -34 83 -34q102 0 118 100l48 270h43z" />
    <glyph glyph-name="uni0E07" unicode="&#xe07;" horiz-adv-x="375" 
d="M347 200q-16 -95 -82 -148.5t-165 -53.5q-11 0 -37 2l-29 391l45 10l26 -362q78 -2 132 41t67 120q13 75 -20 116.5t-109 41.5q-18 0 -28 -1l8 43q10 1 29 1q96 0 140 -54q40 -51 23 -147z" />
    <glyph glyph-name="uni0E08" unicode="&#xe08;" horiz-adv-x="382" 
d="M355 208q-17 -96 -91 -157q-75 -61 -177 -54l-11 208h-40l7 42h77l9 -208q68 2 118 49q53 50 65 120q12 69 -19.5 112.5t-95.5 43.5q-77 0 -147 -60l-29 29q85 74 186 74q84 0 124 -56q40 -57 24 -143z" />
    <glyph glyph-name="uni0E09" unicode="&#xe09;" horiz-adv-x="385" 
d="M263 0l9 54q-66 -61 -145 -61q-127 0 -106 122l13 74h-29l8 43h70l-19 -113q-17 -89 78 -89q46 0 93 33q44 33 52 75l24 135q7 40 -22 66.5t-76 26.5q-41 0 -79 -20q-43 -23 -57 -56h-44q20 53 78 86q52 31 110 31q62 0 103 -38q40 -37 30 -96l-43 -246l8 -27h-56z" />
    <glyph glyph-name="uni0E0A" unicode="&#xe0a;" horiz-adv-x="364" 
d="M328 157q-13 -73 -68 -117.5t-140 -45.5q-61 -1 -117 22l68 384h43l-62 -353q30 -14 76 -12q64 2 105.5 34t51.5 88q20 113 -116 143l130 105l27 -26l-80 -64q102 -49 82 -158z" />
    <glyph glyph-name="uni0E0B" unicode="&#xe0b;" horiz-adv-x="374" 
d="M338 157q-13 -73 -68.5 -117.5t-139.5 -45.5q-61 -1 -116 22l40 224q4 27 35 51q30 26 33 38l3 17l-45 -30q-9 18 -53 59l33 30q21 -18 34 -36l44 31h39l-13 -75q-3 -18 -34 -43q-30 -25 -34 -49l-33 -187q39 -12 76 -11q64 2 105 34t51 88q21 113 -115 143l130 105
l26 -26l-78 -64q101 -50 80 -158z" />
    <glyph glyph-name="uni0E0C" unicode="&#xe0c;" horiz-adv-x="655" 
d="M597 121q-10 -59 -52.5 -93.5t-100.5 -34.5q-81 0 -118 61l-9 -54h-43l47 268q8 48 -21 74q-27 24 -76 24q-80 0 -125 -54l-49 -274h70l-6 -38h-113l57 324q71 83 173 83q65 0 104 -33q42 -38 30 -99l-24 -136q-7 -41 24 -75t78 -34q43 0 73 25t39 70l48 275h43z" />
    <glyph glyph-name="uni0E0D" unicode="&#xe0d;" horiz-adv-x="655" 
d="M598 127q-10 -59 -63 -97q-50 -37 -118 -37q-94 0 -135 64l38 28q26 -53 103 -53q50 0 87 26t45 69q-58 -46 -123 -46q-63 0 -96 33q-36 35 -26 92l11 62q8 48 -21 74q-27 24 -76 24q-80 0 -125 -54l-49 -274h70l-6 -38h-113l57 324q71 83 173 83q65 0 104 -33
q42 -38 30 -99l-12 -68q-8 -44 20 -66q22 -22 69 -22q46 0 83.5 27.5t44.5 68.5l33 185h43z" />
    <glyph glyph-name="uni0E0E" unicode="&#xe0e;" horiz-adv-x="401" 
d="M256 -150l-73 65l-99 -65h-147l7 42h139l109 73l69 -63l65 366q8 48 -21 74q-27 24 -76 24q-80 0 -125 -54l-55 -312h-86l6 38h43l51 286q71 83 173 83q67 0 104 -33q41 -36 30 -99l-75 -425h-39z" />
    <glyph glyph-name="uni0E0F" unicode="&#xe0f;" horiz-adv-x="401" 
d="M255 -150l-45 55l-65 -64l-43 64l-66 -55h-99l7 42h87l82 67l42 -61l65 61l43 -49l63 358q8 48 -21 74q-27 24 -76 24q-80 0 -125 -54l-55 -312h-86l6 38h43l51 286q71 83 173 83q67 0 104 -33q41 -36 30 -99l-75 -425h-40z" />
    <glyph glyph-name="uni0E10" unicode="&#xe10;" horiz-adv-x="382" 
d="M355 206q-17 -96 -92 -156q-74 -62 -176 -54l-11 212h-39l6 38h76l9 -209q68 1 120 49q52 51 64 120t-20 112.5t-96 43.5q-72 0 -146 -59l-29 28q85 74 185 74q53 0 86 -21l48 46l27 -25l-45 -45q51 -57 33 -154zM255 -146l-46 55l-64 -64l-42 64l-66 -55h-97l8 42h84
l81 67l41 -61l64 61l43 -49l8 39l-15 33h63l-23 -132h-39z" />
    <glyph glyph-name="uni0E11" unicode="&#xe11;" horiz-adv-x="401" 
d="M279 0l51 292q4 26 -6 46t-28 22l-248 -360h-40l42 243q4 25 39 48q36 23 37 38l4 17l-46 -30q-7 17 -52 59l34 30q17 -15 33 -36l45 31h38l-14 -78q-3 -18 -38 -40q-33 -21 -38 -45l-25 -145l216 310q50 0 74.5 -31t15.5 -80l-51 -291h-43z" />
    <glyph glyph-name="uni0E12" unicode="&#xe12;" horiz-adv-x="683" 
d="M625 121q-10 -59 -52 -93.5t-100 -34.5q-82 0 -119 61l-9 -54h-43l48 277q6 30 -5.5 55.5t-33.5 30.5l-79 -77l-55 76q-27 -12 -64 -58q-40 -52 -51 -111q-10 -62 5 -108q19 -48 70 -48q37 0 65 34l32 -26q-44 -50 -104 -50q-72 0 -100 55q-27 52 -11 143q13 78 70 144
q54 61 111 70l43 -60l59 57q52 0 76.5 -36t14.5 -91l-24 -138q-7 -41 24 -75t78 -34q43 0 73.5 25t38.5 70l48 275h43z" />
    <glyph glyph-name="uni0E13" unicode="&#xe13;" horiz-adv-x="655" 
d="M533 0l9 54q-58 -61 -140 -61q-58 0 -88 34t-19 94l26 147q8 48 -21 74q-27 24 -76 24q-80 0 -125 -54l-49 -274h70l-6 -38h-113l57 324q71 83 173 83q65 0 104 -33q42 -38 30 -99l-26 -150q-7 -46 14 -70.5t64 -24.5q45 0 90 33q42 32 50 76l46 261h43l-70 -400h-43z
" />
    <glyph glyph-name="uni0E14" unicode="&#xe14;" horiz-adv-x="401" 
d="M279 0l46 264q7 43 -18.5 72t-72.5 29q-62 0 -111 -53t-62 -123q-13 -64 4 -106q18 -46 68 -46q33 0 63 32l29 -24q-44 -50 -99 -50q-70 0 -98 55q-27 54 -10 139q17 90 80 153q65 65 144 65q64 0 101 -41q35 -40 25 -101l-46 -265h-43z" />
    <glyph glyph-name="uni0E15" unicode="&#xe15;" horiz-adv-x="418" 
d="M296 0l48 277q6 30 -5 55.5t-33 30.5l-78 -77l-53 76q-30 -13 -64 -58q-39 -54 -49 -111q-14 -65 3 -109q21 -47 69 -47q36 0 63 34l31 -26q-45 -50 -101 -50q-69 0 -97 53t-11 145q15 79 69 144q54 61 109 70l42 -60l59 57q51 0 75 -36t14 -91l-48 -277h-43z" />
    <glyph glyph-name="uni0E16" unicode="&#xe16;" horiz-adv-x="396" 
d="M274 0l47 268q8 48 -21 74q-27 24 -76 24q-80 0 -125 -54l-49 -274h68l-6 -38h-111l57 324q71 83 173 83q65 0 104 -33q42 -38 30 -99l-48 -275h-43z" />
    <glyph glyph-name="uni0E17" unicode="&#xe17;" horiz-adv-x="396" 
d="M274 0l47 270q9 50 -16 76q-25 24 -69 24q-51 0 -95 -34q-44 -36 -51 -75l-46 -261h-43l70 400h43l-9 -54q57 61 145 61q63 0 94 -35.5t21 -97.5l-48 -274h-43z" />
    <glyph glyph-name="uni0E18" unicode="&#xe18;" horiz-adv-x="363" 
d="M306 290q-17 73 -110 73q-38 0 -70.5 -16t-37.5 -37q-3 -23 33 -35q10 -4 73 -15q147 -25 127 -136q-11 -64 -70 -98q-55 -32 -128 -32q-63 0 -124 21l34 195l44 14l-31 -175q33 -13 84 -13q54 0 94 21q45 24 53 67q7 37 -17.5 60.5t-80.5 33.5q-77 14 -100 26
q-44 21 -37 62q6 41 60 73q46 27 105 27q133 0 145 -116h-46z" />
    <glyph glyph-name="uni0E19" unicode="&#xe19;" horiz-adv-x="396" 
d="M274 0l9 54q-56 -61 -145 -61q-63 0 -94 35t-21 98l48 274h43l-48 -270q-8 -48 16 -74t70 -26q51 0 94 34q44 34 52 75l46 261h43l-70 -400h-43z" />
    <glyph glyph-name="uni0E1A" unicode="&#xe1a;" horiz-adv-x="396" 
d="M339 127q-10 -58 -64 -97q-53 -37 -117 -37q-67 0 -104 37q-41 37 -31 97l48 273h43l-48 -273q-7 -40 22 -66.5t77 -26.5q49 0 86.5 26t44.5 67l48 273h43z" />
    <glyph glyph-name="uni0E1B" unicode="&#xe1b;" horiz-adv-x="396" 
d="M339 127q-10 -58 -64 -97q-53 -37 -117 -37q-67 0 -104 37q-41 37 -31 97l48 273h43l-48 -273q-7 -40 22 -66.5t77 -26.5q49 0 86.5 26t44.5 67l65 369h43z" />
    <glyph glyph-name="uni0E1C" unicode="&#xe1c;" horiz-adv-x="498" 
d="M350 0h-37l-47 322l-159 -322h-36l-36 400h112l-7 -42h-57l22 -277l156 319h36l46 -319l138 319h43z" />
    <glyph glyph-name="uni0E1D" unicode="&#xe1d;" horiz-adv-x="498" 
d="M351 0h-37l-48 324l-159 -324h-36l-36 400h112l-7 -42h-57l23 -276l155 318h37l45 -318l179 414h43z" />
    <glyph glyph-name="uni0E1E" unicode="&#xe1e;" horiz-adv-x="498" 
d="M350 0h-37l-47 322l-159 -322h-36l-36 400h43l27 -319l156 319h36l46 -319l138 319h43z" />
    <glyph glyph-name="uni0E1F" unicode="&#xe1f;" horiz-adv-x="498" 
d="M351 0h-37l-48 324l-159 -324h-36l-36 400h43l28 -318l155 318h37l45 -318l179 414h43z" />
    <glyph glyph-name="uni0E20" unicode="&#xe20;" horiz-adv-x="401" 
d="M279 0l47 268q8 48 -21 74q-27 24 -76 24q-80 0 -125 -54l-55 -312h-86l6 38h43l51 286q71 83 173 83q67 0 104 -33q41 -36 30 -99l-48 -275h-43z" />
    <glyph glyph-name="uni0E21" unicode="&#xe21;" horiz-adv-x="396" 
d="M339 126q-10 -62 -54.5 -97.5t-107.5 -35.5q-88 0 -124 61l-9 -54h-43l70 400h43l-46 -261q-7 -40 25 -75q33 -34 83 -34q46 0 79 26t41 74l48 270h43z" />
    <glyph glyph-name="uni0E22" unicode="&#xe22;" horiz-adv-x="395" 
d="M326 58q-67 -64 -167 -64q-83 0 -125 39q-37 37 -27 93q12 71 88 108q-55 18 -45 78q7 40 45 66.5t87 26.5q33 0 54 -9l-8 -43q-24 9 -53 9q-32 0 -54.5 -13t-26.5 -37q-4 -26 19 -41q24 -12 55 -12h43l-7 -43h-35q-37 0 -72 -24q-37 -25 -45 -65q-8 -41 24 -66.5
t90 -25.5q71 0 120 39l57 326h43z" />
    <glyph glyph-name="uni0E23" unicode="&#xe23;" horiz-adv-x="369" 
d="M328 125q-10 -61 -67 -99q-49 -34 -116 -34q-68 0 -106 35q-43 37 -31 104h43q-9 -47 24 -74q29 -23 77 -23q46 0 84 23q40 25 49 68q5 31 -20 49.5t-80 25.5q-70 9 -101 24q-45 22 -38 68q9 50 58 80q48 33 107 33q61 0 100 -27q42 -33 42 -88h-44q-12 74 -105 74
q-37 0 -72 -19q-37 -21 -41 -49q-4 -27 33 -40q12 -4 75 -14q145 -21 129 -117z" />
    <glyph glyph-name="uni0E24" unicode="&#xe24;" horiz-adv-x="396" 
d="M247 -150l74 417q9 46 -18.5 72.5t-78.5 26.5q-82 0 -125 -55l-49 -273h68l-6 -38h-111l57 323q70 84 173 84q68 0 103 -34q42 -37 31 -100l-75 -423h-43z" />
    <glyph glyph-name="uni0E25" unicode="&#xe25;" horiz-adv-x="405" 
d="M283 0l28 162q-9 32 -41.5 52t-74.5 20q-57 0 -97 -31.5t-49 -81.5q-6 -34 10.5 -58.5t46.5 -24.5q29 0 55 16l20 -34q-40 -25 -82 -25q-50 0 -77 37q-25 38 -16 89q11 64 63 107q55 48 133 48q81 0 121 -46l8 43q8 41 -24 67t-78 26q-39 0 -75.5 -21t-55.5 -55h-45
q24 53 76 85t111 32q65 0 104 -38q40 -37 30 -96l-48 -273h-43z" />
    <glyph glyph-name="uni0E26" unicode="&#xe26;" horiz-adv-x="401" 
d="M252 -150l74 418q8 48 -21 74q-27 24 -76 24q-80 0 -125 -54l-55 -312h-86l6 38h43l51 286q71 83 173 83q67 0 104 -33q41 -36 30 -99l-75 -425h-43z" />
    <glyph glyph-name="uni0E27" unicode="&#xe27;" horiz-adv-x="367" 
d="M339 200q-15 -88 -69 -145q-57 -62 -136 -62q-52 0 -89.5 33.5t-41.5 87.5h44q18 -79 95 -79q60 0 103 51q39 44 51 114q12 69 -11 114q-25 51 -85 51q-34 0 -69 -22t-53 -57h-45q24 53 73.5 87t101.5 34q78 0 113 -62q33 -57 18 -145z" />
    <glyph glyph-name="uni0E28" unicode="&#xe28;" horiz-adv-x="396" 
d="M274 0l48 274q7 40 -22 66t-76 26t-86 -26t-46 -66l-9 -51h123l-7 -42h-123l-32 -181h-43l47 271q12 59 64 96q55 38 118 38q39 0 69 -15l42 40l30 -25l-37 -36q42 -42 30 -98l-47 -271h-43z" />
    <glyph glyph-name="uni0E29" unicode="&#xe29;" horiz-adv-x="401" 
d="M352 190l-11 -63q-10 -58 -65 -96q-53 -38 -117 -38q-68 0 -105 37q-41 37 -31 97l48 273h43l-48 -275q-7 -42 20.5 -66.5t79.5 -24.5q49 0 86.5 25t44.5 66l11 65h-113l12 63l28 -20h81l29 167h44l-29 -167h39l-8 -43h-39z" />
    <glyph glyph-name="uni0E2A" unicode="&#xe2a;" horiz-adv-x="405" 
d="M283 0l28 161q-10 32 -41.5 52t-74.5 20q-57 0 -97 -31.5t-49 -81.5q-6 -34 10.5 -58.5t46.5 -24.5q26 0 55 17l20 -34q-40 -25 -82 -25q-50 0 -77 37q-25 37 -16 88q10 61 62 107q58 48 134 48q79 0 121 -46l8 44q8 41 -24 67t-78 26q-39 0 -75.5 -21t-55.5 -54h-45
q25 52 77 84t110 32q38 0 69 -15l42 40l30 -25l-38 -36q41 -40 31 -98l-48 -273h-43z" />
    <glyph glyph-name="uni0E2B" unicode="&#xe2b;" horiz-adv-x="401" 
d="M284 0l34 196q7 42 -26 66q-34 24 -82 20l-129 -72l-37 -210h-43l70 400h43l-25 -142l262 147l32 -25l-110 -64q48 -9 72.5 -41t16.5 -78l-35 -197h-43z" />
    <glyph glyph-name="uni0E2C" unicode="&#xe2c;" horiz-adv-x="498" 
d="M542 434q-20 -48 -71 -62q19 -23 14 -52q-3 -14 -9 -29l-126 -291h-37l-47 324l-159 -324h-36l-36 400h43l27 -318l156 318h36l46 -318l92 211q4 9 6 19q9 50 -46 50h-42l6 38h46q77 0 97 44l13 29h45z" />
    <glyph glyph-name="uni0E2D" unicode="&#xe2d;" horiz-adv-x="432" 
d="M404 200q-15 -89 -79 -149q-62 -58 -150 -58q-86 0 -128 58q-44 59 -27 149q2 15 11 41h139l-7 -42h-101q-11 -71 22 -117t99 -46t115.5 46t62.5 118t-20.5 118.5t-99.5 46.5q-97 0 -154 -94h-44q67 136 206 136q88 0 128 -58q44 -62 27 -149z" />
    <glyph glyph-name="uni0E2E" unicode="&#xe2e;" horiz-adv-x="432" 
d="M404 200q-15 -89 -79 -149q-62 -58 -150 -58q-86 0 -128 58q-44 59 -27 149q2 15 11 41h139l-7 -42h-101q-11 -71 22 -117t99 -46t115.5 46t62.5 118t-20.5 118.5t-99.5 46.5q-97 0 -154 -94h-44q67 136 206 136q42 0 78 -17l42 40l27 -23l-38 -38q65 -57 46 -169z" />
    <glyph glyph-name="uni0E2F" unicode="&#xe2f;" horiz-adv-x="392" 
d="M270 0l48 273q-67 -53 -164 -53q-59 0 -90 27t-24 67q7 39 45 65t86 26q28 0 55 -9l-8 -43q-29 10 -53 10q-32 0 -55 -13t-27 -36q-4 -24 18.5 -39t60.5 -15q106 0 166 71l12 69h43l-70 -400h-43z" />
    <glyph glyph-name="uni0E30" unicode="&#xe30;" horiz-adv-x="153" 
d="M35 281l12 69h43l-5 -27h65l-7 -42h-108zM-6 50l13 69h43l-5 -27h65l-8 -42h-108z" />
    <glyph glyph-name="uni0E31" unicode="&#xe31;" 
d="M-146 450l14 80h42l-7 -40h232l-7 -40h-274z" />
    <glyph glyph-name="uni0E32" unicode="&#xe32;" horiz-adv-x="276" 
d="M156 0l45 258q19 110 -79 110q-41 0 -87 -29l7 45q46 23 88 23q68 0 98 -42q27 -37 16 -100l-46 -265h-42z" />
    <glyph glyph-name="uni0E33" unicode="&#xe33;" horiz-adv-x="276" 
d="M35 496q-3 -19 -20.5 -33.5t-36.5 -14.5q-20 0 -31.5 14.5t-8.5 33.5q3 20 20 34.5t37 14.5q19 0 31 -14.5t9 -34.5zM156 0l45 258q19 110 -79 110q-41 0 -87 -29l7 45q46 23 88 23q68 0 98 -42q27 -37 16 -100l-46 -265h-42zM7 496q4 21 -17 21q-20 0 -25 -21
q-3 -21 17 -21q22 0 25 21z" />
    <glyph glyph-name="uni0E34" unicode="&#xe34;" 
d="M-310 450l8 40h309l-7 -40h-310z" />
    <glyph glyph-name="uni0E35" unicode="&#xe35;" 
d="M-310 450l8 40h266l9 50h43l-16 -90h-310z" />
    <glyph glyph-name="uni0E36" unicode="&#xe36;" 
d="M34 497q-3 -19 -20 -33t-36 -14h-288l8 40h241q-1 4 0 7q4 21 19.5 34.5t36.5 13.5q19 0 31 -14t8 -34zM4 499q3 18 -15 18t-21 -18q-4 -18 14 -18t22 18z" />
    <glyph glyph-name="uni0E37" unicode="&#xe37;" 
d="M-310 450l8 40h194l9 50h43l-9 -50h29l9 50h43l-16 -90h-310z" />
    <glyph glyph-name="uni0E38" unicode="&#xe38;" 
d="M-149 -155l13 75h-40l7 40h83l-20 -115h-43z" />
    <glyph glyph-name="uni0E39" unicode="&#xe39;" 
d="M-96 -94q-4 -27 -31 -46.5t-60 -19.5q-49 0 -69 35l8 45h-31l7 40h74l-12 -71q7 -13 31 -13q35 0 40 29l10 55h43z" />
    <glyph glyph-name="uni0E3A" unicode="&#xe3a;" 
d="M-81 -72q-6 -32 -38 -32t-27 32q6 32 38 32t27 -32z" />
    <glyph glyph-name="uni0E3F" unicode="&#xe3f;" horiz-adv-x="440" 
d="M400 134q-22 -134 -192 -134h-16l-12 -66h-25l12 66h-158l83 471h158l11 62h25l-11 -62h16q76 0 108 -28.5t22 -86.5q-7 -38 -34.5 -67.5t-65.5 -38.5l-1 -1q45 -6 66.5 -37.5t13.5 -77.5zM375 345q7 44 -15.5 66t-75.5 22h-16l-30 -168h16q51 0 82.5 21.5t38.5 58.5z
M243 433h-114l-30 -168h114zM355 135q8 46 -18.5 68.5t-88.5 22.5h-17l-33 -188h16q125 0 141 97zM207 226h-115l-33 -188h114z" />
    <glyph glyph-name="uni0E40" unicode="&#xe40;" horiz-adv-x="142" 
d="M11 0l70 400h42l-70 -400h-42z" />
    <glyph glyph-name="uni0E41" unicode="&#xe41;" horiz-adv-x="247" 
d="M116 0l70 400h42l-70 -400h-42zM11 0l70 400h42l-70 -400h-42z" />
    <glyph glyph-name="uni0E42" unicode="&#xe42;" horiz-adv-x="162" 
d="M122 579q-28 0 -33 -18q-1 -13 15 -25q24 -18 30 -26q15 -18 10 -52l-81 -458h-42l81 459q4 29 -27 53q-31 25 -27 49q5 27 29.5 43t57.5 16h124l-7 -41h-130z" />
    <glyph glyph-name="uni0E43" unicode="&#xe43;" horiz-adv-x="162" 
d="M207 544q-5 -28 -33 -50q-29 -24 -33 -49l-78 -445h-42l79 450q6 32 33 53q28 22 31 39q3 19 -9.5 32t-35.5 13q-26 0 -44.5 -15.5t-23.5 -40.5h-41q8 39 41 66.5t75 27.5q41 0 63.5 -23.5t17.5 -57.5z" />
    <glyph glyph-name="uni0E44" unicode="&#xe44;" horiz-adv-x="162" 
d="M211 547q-59 -43 -67 -90l-81 -457h-42l79 451q9 47 63 91l-17 21l-57 -46l-75 77l30 28l56 -56l61 48z" />
    <glyph glyph-name="uni0E45" unicode="&#xe45;" horiz-adv-x="276" 
d="M129 -150l72 408q19 110 -79 110q-41 0 -87 -29l7 45q46 23 88 23q68 0 98 -42q27 -37 16 -100l-73 -415h-42z" />
    <glyph glyph-name="uni0E46" unicode="&#xe46;" horiz-adv-x="395" 
d="M246 -150l77 436q12 67 -43 79l-77 -69l-54 69q-59 -12 -71 -79l-4 -21h81l-7 -42h-124l11 63q10 54 47.5 86.5t90.5 32.5l40 -51l58 51q53 0 79 -32.5t16 -86.5l-77 -436h-43z" />
    <glyph glyph-name="uni0E47" unicode="&#xe47;" 
d="M-165 532q-57 0 -64 -45v1h39l62 34l48 -34h63l-7 -38h-69l-42 31l-54 -31h-87l5 33q7 39 37 62.5t79 23.5h185l-6 -37h-189z" />
    <glyph glyph-name="uni0E48" unicode="&#xe48;" 
d="M-22 570l13 70h43l-13 -70h-43z" />
    <glyph glyph-name="uni0E49" unicode="&#xe49;" 
d="M-64 570l3 21q3 15 -10 15h-14l6 36h20q22 0 31 -8.5t6 -25.5v-2h115l-6 -36h-151z" />
    <glyph glyph-name="uni0E4A" unicode="&#xe4a;" 
d="M64 570l5 30q5 26 -20 26l-53 -34l-39 34h-1q-26 0 -31 -26v1h36l-5 -31h-71l6 36q4 24 25.5 40t48.5 16h4l34 -29l44 29h7q28 0 42.5 -15t9.5 -41h60l-7 -36h-95z" />
    <glyph glyph-name="uni0E4B" unicode="&#xe4b;" 
d="M26 613l-8 -43h-36l8 43h-45l6 30h44l7 43h37l-8 -43h45l-5 -30h-45z" />
    <glyph glyph-name="uni0E4C" unicode="&#xe4c;" 
d="M14 564q-24 0 -27 -17l-3 -17h-38l3 21q9 47 58 47h46l-6 -34h-33z" />
    <glyph glyph-name="uni0E4D" unicode="&#xe4d;" 
d="M35 496q-3 -19 -20.5 -33.5t-36.5 -14.5q-20 0 -31.5 14.5t-8.5 33.5q3 20 20 34.5t37 14.5q19 0 31 -14.5t9 -34.5zM7 496q4 21 -17 21q-20 0 -25 -21q-3 -21 17 -21q22 0 25 21z" />
    <glyph glyph-name="uni0E4E" unicode="&#xe4e;" 
d="M62 654q-26 2 -37 2q-46 0 -77 -12q-35 -13 -40 -37q-6 -29 54 -28l-5 -31q-46 1 -83 -11q-44 -13 -49 -39q-3 -19 27 -19q29 0 59 15l10 -26q-37 -18 -74 -18q-34 0 -49 11.5t-10 34.5q4 26 32 46t67 26q-21 12 -17 40q6 34 56 57q49 23 112 23q20 0 30 -1z" />
    <glyph glyph-name="uni0E4F" unicode="&#xe4f;" horiz-adv-x="480" 
d="M441 200q-15 -84 -86 -145q-69 -60 -155 -60t-135 60q-49 62 -34 145q15 86 86 145q69 60 155 60t134 -60q50 -59 35 -145zM411 200q12 74 -31 123q-40 52 -113 52q-74 0 -133 -52q-61 -51 -73 -123q-14 -71 29 -124q44 -51 115 -51q72 0 132 51q61 52 74 124zM361 200
q-9 -51 -52 -89q-42 -36 -95 -36q-52 0 -83 36q-29 38 -20 89q9 52 52 88q41 37 95 37q52 0 82 -37q30 -36 21 -88z" />
    <glyph glyph-name="uni0E50" unicode="&#xe50;" horiz-adv-x="367" 
d="M330 150q-12 -63 -66 -110q-55 -46 -120 -46q-68 0 -105 46q-40 47 -28 110t66 110q55 46 122 46q66 0 103 -46q39 -46 28 -110zM288 150q8 49 -20 82q-28 34 -78 34q-52 0 -90 -34q-40 -34 -49 -82q-9 -47 20 -82q27 -34 78 -34q50 0 90 34t49 82z" />
    <glyph glyph-name="uni0E51" unicode="&#xe51;" horiz-adv-x="391" 
d="M355 153q-13 -75 -87 -132q-68 -51 -143 -62l-13 34q70 9 129 53q63 47 73 107q9 50 -24 82.5t-89 32.5q-53 0 -96 -31q-44 -31 -51 -77q-6 -34 13 -58t54 -24q3 0 6 1q-28 16 -22 55q5 28 29 48t53 20t45.5 -20.5t11.5 -47.5q-7 -40 -46.5 -68t-87.5 -28
q-51 0 -78.5 35.5t-18.5 86.5q12 64 71 106q55 40 123 40q74 0 116 -42q44 -42 32 -111zM208 134q6 33 -27 33t-39 -33q-6 -31 28 -31t38 31z" />
    <glyph glyph-name="uni0E52" unicode="&#xe52;" horiz-adv-x="550" 
d="M40 0q15 147 1 241q-17 95 -74 160l36 27q65 -73 80 -173q12 -91 2 -214h351l30 171q4 24 -8.5 39t-36.5 15q-37 0 -63 -32l-28 -161h-42l28 162q-16 31 -57 31q-30 0 -53.5 -18t-28.5 -45l-1 -3q9 4 30 4q30 0 47 -20t12 -48q-5 -29 -29 -49t-54 -20q-29 0 -46 20
t-12 49l12 67q7 44 45.5 74t84.5 30q49 0 77 -34q41 34 85 34q40 0 64 -25.5t17 -64.5l-38 -217h-431zM229 136q2 13 -7 22.5t-23 9.5q-34 0 -39 -32q-6 -32 28 -32q35 0 41 32z" />
    <glyph glyph-name="uni0E53" unicode="&#xe53;" horiz-adv-x="468" 
d="M348 0l37 210q4 25 -10.5 40t-40.5 15q-42 0 -67 -33l-41 -232h-42l41 233q-18 32 -62 32q-29 0 -55 -18.5t-31 -44.5l-13 -75q11 4 29 4q30 0 47 -20t12 -49q-5 -28 -29 -47.5t-54 -19.5t-46 19.5t-11 47.5l24 140q9 44 48 73q42 30 86 30q56 0 84 -33q38 33 88 33
q41 0 66.5 -25.5t18.5 -64.5l-38 -215h-41zM116 62q2 14 -7 24t-23 10t-25 -10t-13 -24q-2 -13 6 -23t21 -10q14 0 26.5 10t14.5 23z" />
    <glyph glyph-name="uni0E54" unicode="&#xe54;" horiz-adv-x="422" 
d="M453 420q-10 -66 -37 -107q-33 -50 -82 -50h-136q-53 0 -96 -34q-44 -33 -51 -86q-7 -51 23 -81q27 -27 75 -27q22 0 46 6l35 8q-39 33 -30 78q4 29 29.5 50t55.5 21q29 0 45.5 -20t11.5 -48q-9 -53 -62 -66q8 -5 36 -10q47 -8 64 -26l-30 -33q-34 20 -78 20
q-18 0 -58 -9t-75 -9q-63 0 -99 36q-42 39 -30 110q11 68 68 114q57 47 127 47h136q48 0 71 116h41zM307 130q2 13 -6.5 22.5t-22.5 9.5q-34 0 -40 -32q-5 -32 29 -32t40 32z" />
    <glyph glyph-name="uni0E55" unicode="&#xe55;" horiz-adv-x="422" 
d="M453 420q-10 -66 -37 -107q-33 -50 -82 -50h-136q-53 0 -96 -34q-44 -33 -51 -86q-7 -51 23 -81q27 -27 75 -27q22 0 46 6l35 8q-39 31 -30 78q4 29 29.5 50t55.5 21q29 0 45.5 -20t11.5 -48q-8 -50 -60 -67q3 -5 34 -9q47 -8 64 -26l-30 -33q-34 20 -78 20q-18 0 -58 -9
t-75 -9q-63 0 -99 36q-42 40 -30 110q10 57 52 100t99 56q-6 14 -2 35q6 30 30.5 51t54.5 21q31 0 49.5 -21t13.5 -51q-4 -14 -14 -29h23q12 -1 25 -1q48 0 71 116h41zM268 334q6 36 -30 36q-15 0 -27.5 -10.5t-15.5 -25.5q-2 -14 7.5 -24t23.5 -10q15 0 27 10t15 24z
M307 130q2 13 -6.5 22.5t-22.5 9.5q-34 0 -40 -32q-5 -32 29 -32t40 32z" />
    <glyph glyph-name="uni0E56" unicode="&#xe56;" horiz-adv-x="396" 
d="M359 153q-12 -68 -72 -115q-57 -45 -132 -45q-67 0 -105 36q-38 38 -29 84q5 30 28.5 50t52.5 20q30 0 46.5 -20t11.5 -49q-9 -50 -59 -66q19 -15 61 -15q56 0 102 34q45 36 54 86q9 48 -24 81q-32 33 -83 33q-66 0 -128 -50l-35 10q1 93 -57 159l36 25q58 -57 66 -144
q58 40 125 40q69 0 111 -44t30 -110zM124 114q6 33 -28 33q-33 0 -39 -33q-2 -13 6 -23t21 -10q14 0 26 9.5t14 23.5z" />
    <glyph glyph-name="uni0E57" unicode="&#xe57;" horiz-adv-x="564" 
d="M597 388q-52 -31 -61 -85l-37 -210q-9 -47 -50 -73t-102 -24l38 216q5 25 -9.5 39.5t-39.5 14.5q-42 0 -69 -33l-41 -233h-42l41 234q-17 32 -61 32q-30 0 -56 -18.5t-30 -44.5l-14 -77q13 5 29 5q30 0 47 -20t12 -49q-5 -28 -29 -47.5t-54 -19.5t-46 19.5t-11 47.5
l25 141q8 44 47 73q42 30 86 30q56 0 84 -33q38 33 89 33q40 0 65.5 -25.5t18.5 -63.5l-31 -181q51 6 60 53l38 218q10 64 73 105zM116 62q6 34 -30 34q-32 0 -38 -34q-2 -13 6 -23t21 -10q14 0 26.5 10t14.5 23z" />
    <glyph glyph-name="uni0E58" unicode="&#xe58;" horiz-adv-x="435" 
d="M448 408q-22 -87 -92 -161q-63 20 -122 20q-66 0 -120 -33q-53 -35 -62 -83q-6 -37 10.5 -67.5t45.5 -40.5l85 83l72 -82q13 4 31 19q-39 16 -30 59q4 25 26 43t49 18q25 0 40 -19t11 -44q-12 -64 -144 -126l-63 73l-72 -72q-56 15 -83 55q-29 43 -19 101q12 67 78 111
q66 45 153 45q60 0 106 -12q43 53 59 116zM355 122q4 25 -20 25q-27 0 -31 -25q-5 -26 22 -26q24 0 29 26z" />
    <glyph glyph-name="uni0E59" unicode="&#xe59;" horiz-adv-x="467" 
d="M511 414q-1 -6 -2.5 -18.5t-2.5 -19.5q-17 -96 -86 -152q-4 45 -39 45q-17 0 -32.5 -15t-20.5 -34q42 -89 32 -218l-43 -5q15 272 -128 272q-50 0 -88.5 -33t-46.5 -83q-8 -42 6.5 -74.5t43.5 -40.5q-11 12 -6 39q4 29 29.5 49.5t55.5 20.5q29 0 45.5 -20.5t11.5 -49.5
q-6 -36 -40 -59.5t-74 -23.5q-68 0 -98 49q-28 45 -16 112q12 66 64 110q56 44 120 44q68 0 108 -48q30 46 81 49q31 3 49 -20q29 41 35 124h42zM203 77q7 34 -27 34q-33 0 -40 -34q-2 -14 6 -23.5t22 -9.5q33 0 39 33z" />
    <glyph glyph-name="uni0E5A" unicode="&#xe5a;" horiz-adv-x="485" 
d="M363 0l48 273q-22 -18 -56 -33l-42 -240h-43l48 273q-67 -53 -164 -53q-59 0 -90 27t-24 67q7 39 45 65t86 26q28 0 55 -9l-8 -43q-29 10 -53 10q-32 0 -55 -13t-27 -36q-4 -24 18.5 -39t60.5 -15q106 0 166 71l12 69h43l-20 -114q38 19 58 45l12 69h43l-70 -400h-43z
" />
    <glyph glyph-name="uni0E5B" unicode="&#xe5b;" horiz-adv-x="684" 
d="M666 212q-2 -10 -24 -12l-55 -5q-17 -29 -26 -29q-7 0 -23 45q-24 -57 -38 -57q-7 0 -15 23q-3 7 -7 21.5t-6 19.5q-25 -74 -42 -74q-9 0 -15 29l-12 52q-28 -94 -55 -94q-12 0 -15 38l-5 57q-16 -63 -64 -117q-62 -72 -138 -72q-57 0 -85 46t-15 119q12 68 54 118
q43 49 94 49q42 0 64.5 -34.5t13.5 -85.5q-7 -40 -28 -65.5t-49 -25.5q-23 0 -36 18t-9 44q4 25 24 43.5t41 18.5q10 0 19 -3q-4 54 -46 54q-34 0 -64 -38t-41 -97q-10 -57 11 -91.5t64 -34.5q49 0 95 49.5t70 131.5q12 36 29 36q27 0 33 -96l20 60q9 27 21 27q25 0 34 -79
q18 60 31 60q21 0 36 -66q23 52 35 52q13 0 25 -40q12 24 27 22l53 -7q11 -2 15.5 -4t3.5 -6zM208 220q6 32 -18 32q-23 0 -29 -32q-3 -12 3 -21.5t15 -9.5q25 0 29 31z" />
    <glyph glyph-name="zerowidthnonjoiner" unicode="&#x200c;" 
 />
    <glyph glyph-name="zerowidthjoiner" unicode="&#x200d;" 
 />
    <glyph glyph-name="endash" unicode="&#x2013;" horiz-adv-x="362" 
d="M17 148l6 35h302l-6 -35h-302z" />
    <glyph glyph-name="emdash" unicode="&#x2014;" horiz-adv-x="724" 
d="M17 148l6 35h664l-6 -35h-664z" />
    <glyph glyph-name="quoteleft" unicode="&#x2018;" horiz-adv-x="143" 
d="M141 443q-16 -6 -27.5 -24t-14.5 -38h27l-12 -67h-55l12 67q14 74 75 90z" />
    <glyph glyph-name="quoteright" unicode="&#x2019;" horiz-adv-x="143" 
d="M132 404q-12 -74 -75 -90l5 28q17 6 28 26q13 17 14 36h-27l12 67h55z" />
    <glyph glyph-name="quotedblleft" unicode="&#x201c;" horiz-adv-x="244" 
d="M242 443q-16 -6 -27.5 -24t-14.5 -38h27l-12 -67h-55l12 67q14 73 75 90zM140 443q-16 -6 -27.5 -24t-14.5 -38h27l-12 -67h-55l12 67q14 73 75 90z" />
    <glyph glyph-name="quotedblright" unicode="&#x201d;" horiz-adv-x="244" 
d="M234 404q-12 -74 -75 -90l5 28q17 6 28 26q11 15 14 36h-27l12 67h55zM132 404q-12 -74 -75 -90l5 28q17 6 28 26q13 17 14 36h-27l12 67h55z" />
    <glyph glyph-name="bullet" unicode="&#x2022;" horiz-adv-x="370" 
d="M331 200q-10 -60 -62 -106q-51 -44 -115 -44q-62 0 -97 44q-37 44 -26 106q12 62 63 106q52 44 114 44q60 0 98 -44q35 -45 25 -106z" />
    <glyph glyph-name="ellipsis" unicode="&#x2026;" horiz-adv-x="549" 
d="M391 0l12 67h55l-12 -67h-55zM208 0l12 67h54l-11 -67h-55zM25 0l12 67h55l-12 -67h-55z" />
    <glyph glyph-name="thothannobasethai" unicode="&#xf700;" horiz-adv-x="382" 
d="M355 206q-17 -96 -92 -156q-74 -62 -176 -54l-11 212h-39l6 38h76l9 -209q68 1 120 49q52 51 64 120t-20 112.5t-96 43.5q-72 0 -146 -59l-29 28q85 74 185 74q53 0 86 -21l48 46l27 -25l-45 -45q51 -57 33 -154z" />
    <glyph glyph-name="saraileftthai" unicode="&#xf701;" 
d="M-373 450l8 40h290l-8 -40h-290z" />
    <glyph glyph-name="saraiileftthai" unicode="&#xf702;" 
d="M-373 450l8 40h247l9 50h43l-17 -90h-290z" />
    <glyph glyph-name="saraueleftthai" unicode="&#xf703;" 
d="M-47 497q-3 -19 -20 -33t-37 -14h-268l8 40h221q-1 4 0 7q4 20 20 34t36 14q19 0 31.5 -14t8.5 -34zM-78 499q3 18 -15 18t-21 -18t15 -18t21 18z" />
    <glyph glyph-name="saraueeleftthai" unicode="&#xf704;" 
d="M-373 450l8 40h174l9 50h43l-9 -50h30l9 50h43l-17 -90h-290z" />
    <glyph glyph-name="maieklowleftthai" unicode="&#xf705;" 
d="M-143 450l18 100h43l-18 -100h-43z" />
    <glyph glyph-name="maitholowleftthai" unicode="&#xf706;" 
d="M-126 450l4 24q3 16 -11 16h-16l7 40h23q24 0 34.5 -9t6.5 -28v-3h128l-7 -40h-169z" />
    <glyph glyph-name="maitrilowleftthai" unicode="&#xf707;" 
d="M-120 450l6 34q6 28 -23 28h-1l-53 -33l-44 33q-28 0 -34 -28l1 1h41l-6 -35h-82l7 40q4 29 27 45.5t56 16.5h6l35 -29l46 29h6q32 0 48.5 -16.5t12.5 -45.5h119l-7 -40h-161z" />
    <glyph glyph-name="maichattawalowleftthai" unicode="&#xf708;" 
d="M-116 497l-9 -47h-40l9 47h-50l6 34h50l8 47h40l-8 -47h49l-5 -34h-50z" />
    <glyph glyph-name="thanthakhatlowleftthai" unicode="&#xf709;" 
d="M-101 498q-25 0 -28 -17l-4 -19h-41l4 22q9 50 62 50h49l-6 -36h-36z" />
    <glyph glyph-name="maieklowrightthai" unicode="&#xf70a;" 
d="M-42 450l17 100h43l-18 -100h-42z" />
    <glyph glyph-name="maitholowrightthai" unicode="&#xf70b;" 
d="M-104 450l5 24q3 16 -11 16h-16l7 40h23q24 0 34.5 -9t6.5 -28v-3h128l-7 -40h-170z" />
    <glyph glyph-name="maitrilowrightthai" unicode="&#xf70c;" 
d="M-68 450l5 34q6 28 -23 28h-1l-59 -37l-48 37q-28 0 -34 -28l1 1h41l-6 -35h-82l7 40q4 29 27 45.5t56 16.5h6l40 -32l51 32h5q33 0 49.5 -16.5t11.5 -45.5h68l-7 -40h-108z" />
    <glyph glyph-name="maichattawalowrightthai" unicode="&#xf70d;" 
d="M-41 497l-8 -47h-40l8 47h-50l6 34h50l8 47h40l-9 -47h50l-6 -34h-49z" />
    <glyph glyph-name="thanthakhatlowrightthai" unicode="&#xf70e;" 
d="M2 486q-25 0 -28 -17l-4 -19h-40l4 22q8 50 61 50h49l-6 -36h-36z" />
    <glyph glyph-name="yoyingnobasethai" unicode="&#xf70f;" horiz-adv-x="655" 
d="M598 127q-10 -62 -57.5 -98t-117.5 -36q-69 0 -103 35.5t-24 98.5l25 141q8 48 -21 74q-27 24 -76 24q-80 0 -125 -54l-49 -274h70l-6 -38h-113l57 324q71 83 173 83q65 0 104 -33q42 -38 30 -99l-26 -148q-8 -43 17.5 -70t73.5 -27t82.5 27t42.5 70l48 273h43z" />
    <glyph glyph-name="maihanakatleftthai" unicode="&#xf710;" 
d="M-224 450l15 80h42l-7 -40h233l-8 -40h-275z" />
    <glyph glyph-name="nikhahitleftthai" unicode="&#xf711;" 
d="M-57 496q-3 -19 -20.5 -33.5t-37.5 -14.5t-31.5 14.5t-8.5 33.5q3 20 20 34.5t37 14.5t32 -14.5t9 -34.5zM-85 496q3 21 -18 21t-24 -21t17 -21q22 0 25 21z" />
    <glyph glyph-name="maitaikhuleftthai" unicode="&#xf712;" 
d="M-204 532q-56 0 -64 -45v1h39l62 34l48 -34h63l-7 -38h-69l-42 31l-55 -31h-86l5 33q7 39 37 62.5t79 23.5h185l-6 -37h-189z" />
    <glyph glyph-name="maiekupperleftthai" unicode="&#xf713;" 
d="M-104 570l12 70h43l-13 -70h-42z" />
    <glyph glyph-name="maithoupperleftthai" unicode="&#xf714;" 
d="M-147 570l3 21q3 15 -10 15h-14l6 36h20q22 0 31 -8.5t7 -25.5l-1 -2h115l-6 -36h-151z" />
    <glyph glyph-name="maitriupperleftthai" unicode="&#xf715;" 
d="M-19 570l5 30q5 26 -20 26l-52 -34l-40 34h-1q-26 0 -31 -26v1h36l-5 -31h-71l6 36q4 24 25.5 40t48.5 16h4l35 -29l43 29h7q28 0 42.5 -15t9.5 -41h60l-7 -36h-95z" />
    <glyph glyph-name="maichattawaupperleftthai" unicode="&#xf716;" 
d="M-57 613l-7 -43h-37l8 43h-45l6 30h45l7 43h36l-7 -43h44l-5 -30h-45z" />
    <glyph glyph-name="thanthakhatupperleftthai" unicode="&#xf717;" 
d="M-68 564q-24 0 -27 -17l-3 -17h-39l3 21q9 47 59 47h45l-6 -34h-32z" />
    <glyph glyph-name="saraulowthai" unicode="&#xf718;" 
d="M-174 -295l13 75h-40l7 40h83l-20 -115h-43z" />
    <glyph glyph-name="sarauulowthai" unicode="&#xf719;" 
d="M-120 -234q-4 -27 -31.5 -46.5t-60.5 -19.5q-50 0 -68 35l8 45h-32l7 40h74l-12 -71q9 -13 31 -13q35 0 41 29l9 55h43z" />
    <glyph glyph-name="phinthulowthai" unicode="&#xf71a;" 
d="M-116 -212q-6 -32 -38 -32t-26 32t37 32q33 0 27 -32z" />
    <glyph glyph-name="lochula.short" unicode="&#xf71d;" 
 />
    <glyph glyph-name="fongmanfunnuthai" unicode="&#xf880;" 
 />
    <glyph glyph-name="CR" horiz-adv-x="220" 
 />
    <glyph glyph-name="uni0E33_1" horiz-adv-x="276" 
d="M-57 496q-3 -19 -20.5 -33.5t-37.5 -14.5t-31.5 14.5t-8.5 33.5q3 20 20 34.5t37 14.5t32 -14.5t9 -34.5zM156 0l45 258q19 110 -79 110q-41 0 -87 -29l7 45q46 23 88 23q68 0 98 -42q27 -37 16 -100l-46 -265h-42zM-85 496q3 21 -18 21t-24 -21t17 -21q22 0 25 21z" />
    <glyph glyph-name="uni0E4E_1" 
d="M50 654q-26 2 -37 2q-45 0 -77 -12q-35 -13 -40 -37q-2 -15 11.5 -22t43.5 -6l-6 -31q-44 1 -83 -11q-45 -14 -49 -39q-3 -19 26 -19q30 0 60 15l11 -26q-40 -18 -76 -18q-33 0 -47.5 11.5t-10.5 34.5q4 26 32.5 46t66.5 26q-22 12 -17 40q6 34 56 57q48 23 112 23
q20 0 30 -1z" />
    <glyph glyph-name="F881" 
 />
    <glyph glyph-name="F882" 
 />
    <glyph glyph-name="saraueesp2" 
d="M-140 570l13 70h43l-13 -70h-43zM-373 450l8 40h174l9 50h43l-9 -50h30l9 50h43l-17 -90h-290z" />
    <glyph glyph-name="saraisp" 
d="M-365 450l7 40h310l-8 -40h-309z" />
    <glyph glyph-name="saraiisp" 
d="M-365 450l7 40h267l8 50h43l-16 -90h-309z" />
    </font>
</defs>
</svg>
